<?xml version="1.0" encoding="utf-8"?>
<!-- Generator: Adobe Illustrator 19.0.0, SVG Export Plug-In . SVG Version: 6.00 Build 0)  -->
<svg version="1.0" xmlns="http://www.w3.org/2000/svg" xmlns:xlink="http://www.w3.org/1999/xlink" x="0px" y="0px" width="1920px"
	 height="1080px" viewBox="0 0 1920 1080" style="enable-background:new 0 0 1920 1080;" xml:space="preserve">
<g id="Layer_1">
	<g id="XMLID_1_">
		<g id="XMLID_2_">
			<polygon id="XMLID_3_" style="fill:#54A8E2;" points="1096.8,655.7 734.1,717.2 693.7,282.9 767.8,525.5 			"/>
			<polygon id="XMLID_9_" style="fill:#4B99C4;" points="1114.3,655.7 736.5,555.1 693.7,282.9 883.6,401.8 			"/>
			<polygon id="XMLID_4_" style="fill:#FF33CF;" points="1096.8,655.7 693.7,282.9 837.7,230.4 1046.6,356.5 			"/>
			<polygon id="XMLID_5_" style="fill:#2B8E40;" points="1210.1,662.2 947.3,741.4 1258.5,401.8 1333.3,549.8 			"/>
			<polygon id="XMLID_6_" style="fill:#39D160;" points="1096.8,655.7 905.7,333.8 1173.4,304.8 1258.5,401.8 			"/>
			<polygon id="XMLID_7_" style="fill:#FFB54A;" points="1308.2,532 1096.8,218.2 1378,218.2 1404.9,218.2 			"/>
			<polygon id="XMLID_8_" style="fill:#DD9A4A;" points="939.9,398.7 800,218.2 1074.4,218.2 1101.4,218.2 			"/>
			<polygon id="XMLID_10_" style="fill:#A5238C;" points="1161.5,314.3 1240,430.9 816.3,396.3 1089.2,205.4 			"/>
		</g>
		<g id="XMLID_11_">
			<polygon id="XMLID_19_" style="fill:#54A8E2;" points="824.2,338.4 960,680.2 543.8,810.4 765.5,687.3 			"/>
			<polygon id="XMLID_18_" style="fill:#4B99C4;" points="820.6,321.2 801,711.7 543.8,810.4 620.4,599.8 			"/>
			<polygon id="XMLID_17_" style="fill:#FF33CF;" points="824.2,338.4 543.8,810.4 462.3,680.5 542.1,449.9 			"/>
			<polygon id="XMLID_16_" style="fill:#2B8E40;" points="806.9,226.2 939.3,466.7 542.2,233.2 671.3,129.2 			"/>
			<polygon id="XMLID_15_" style="fill:#39D160;" points="824.2,338.4 549.3,592.5 465,336.7 542.2,233.2 			"/>
			<polygon id="XMLID_14_" style="fill:#FFB54A;" points="659.1,157.5 396.3,429.6 337.7,154.6 332,128.3 			"/>
			<polygon id="XMLID_13_" style="fill:#DD9A4A;" points="605.6,545.4 458.2,719.9 401,451.5 395.4,425.2 			"/>
			<polygon id="XMLID_12_" style="fill:#A5238C;" points="476.8,346.3 574.4,245.2 629.1,666.8 385.4,439.7 			"/>
		</g>
		<g id="XMLID_29_">
			<polygon id="XMLID_37_" style="fill:#54A8E2;" points="1514,142.2 1712.3,452 1328.5,658.9 1522.8,495.9 			"/>
			<polygon id="XMLID_36_" style="fill:#4B99C4;" points="1507.2,126 1562.2,513.1 1328.5,658.9 1363.6,437.6 			"/>
			<polygon id="XMLID_35_" style="fill:#FF33CF;" points="1514,142.2 1328.5,658.9 1223.8,546.9 1258.3,305.3 			"/>
			<polygon id="XMLID_34_" style="fill:#2B8E40;" points="1475.7,35.3 1651.3,246.2 1217.1,92.5 1324.1,-34.1 			"/>
			<polygon id="XMLID_33_" style="fill:#39D160;" points="1514,142.2 1292.4,443.9 1161.1,208.8 1217.1,92.5 			"/>
			<polygon id="XMLID_32_" style="fill:#FFB54A;" points="1317.5,-4 1111.3,313.2 1001.4,54.4 990.8,29.6 			"/>
			<polygon id="XMLID_31_" style="fill:#DD9A4A;" points="1338.8,387 1227.3,586.3 1120,333.8 1109.5,309 			"/>
			<polygon id="XMLID_30_" style="fill:#A5238C;" points="1174.5,216 1251,98.2 1384.9,501.7 1102.5,325.1 			"/>
		</g>
		<g id="XMLID_20_">
			<polygon id="XMLID_28_" style="fill:#54A8E2;" points="1328.4,517.1 1590.1,258.5 1872.5,590.8 1672.5,434.7 			"/>
			<polygon id="XMLID_27_" style="fill:#4B99C4;" points="1314.1,527.1 1681.2,392.6 1872.5,590.8 1648.8,602.5 			"/>
			<polygon id="XMLID_26_" style="fill:#FF33CF;" points="1328.4,517.1 1872.5,590.8 1784.9,716.5 1541.4,733.2 			"/>
			<polygon id="XMLID_25_" style="fill:#2B8E40;" points="1231.9,576.9 1401.6,361.1 1341.9,817.8 1195.7,739.6 			"/>
			<polygon id="XMLID_24_" style="fill:#39D160;" points="1328.4,517.1 1669.8,670.9 1467.3,848.4 1341.9,817.8 			"/>
			<polygon id="XMLID_23_" style="fill:#FFB54A;" points="1226.5,739.7 1579.7,875.3 1349.5,1036.8 1327.5,1052.2 			"/>
			<polygon id="XMLID_22_" style="fill:#DD9A4A;" points="1604.5,637.4 1822.7,704.8 1598,862.4 1576,877.9 			"/>
			<polygon id="XMLID_21_" style="fill:#A5238C;" points="1471.5,833.8 1340.3,783.4 1707.1,568.4 1593.3,881.4 			"/>
		</g>
		<g id="XMLID_65_">
			<polygon id="XMLID_73_" style="fill:#54A8E2;" points="623.6,987.8 260.9,1049.2 220.5,615 294.6,857.6 			"/>
			<polygon id="XMLID_72_" style="fill:#4B99C4;" points="641.1,987.8 263.3,887.1 220.5,615 410.4,733.8 			"/>
			<polygon id="XMLID_71_" style="fill:#FF33CF;" points="623.6,987.8 220.5,615 364.4,562.4 573.3,688.6 			"/>
			<polygon id="XMLID_70_" style="fill:#2B8E40;" points="736.9,994.2 474.1,1073.5 785.3,733.8 860,881.8 			"/>
			<polygon id="XMLID_69_" style="fill:#39D160;" points="623.6,987.8 432.4,665.8 700.1,636.8 785.3,733.8 			"/>
			<polygon id="XMLID_68_" style="fill:#FFB54A;" points="834.9,864 623.6,550.2 904.8,550.2 931.7,550.2 			"/>
			<polygon id="XMLID_67_" style="fill:#DD9A4A;" points="466.7,730.7 326.8,550.2 601.2,550.2 628.2,550.2 			"/>
			<polygon id="XMLID_66_" style="fill:#A5238C;" points="688.3,646.3 766.8,762.9 343.1,728.4 616,537.4 			"/>
		</g>
		<g id="XMLID_56_">
			<polygon id="XMLID_64_" style="fill:#54A8E2;" points="303.8,701.1 439.6,1043 23.3,1173.1 245.1,1050 			"/>
			<polygon id="XMLID_63_" style="fill:#4B99C4;" points="300.2,684 280.6,1074.5 23.3,1173.1 100,962.6 			"/>
			<polygon id="XMLID_62_" style="fill:#FF33CF;" points="303.8,701.1 23.3,1173.1 -58.1,1043.3 21.7,812.7 			"/>
			<polygon id="XMLID_61_" style="fill:#2B8E40;" points="286.5,588.9 418.8,829.4 21.8,595.9 150.9,492 			"/>
			<polygon id="XMLID_60_" style="fill:#39D160;" points="303.8,701.1 28.9,955.2 -55.4,699.5 21.8,595.9 			"/>
			<polygon id="XMLID_59_" style="fill:#FFB54A;" points="138.7,520.2 -124.1,792.4 -182.7,517.4 -188.4,491.1 			"/>
			<polygon id="XMLID_58_" style="fill:#DD9A4A;" points="85.2,908.2 -62.2,1082.6 -119.4,814.3 -125,787.9 			"/>
			<polygon id="XMLID_57_" style="fill:#A5238C;" points="-43.6,709.1 54,608 108.6,1029.6 -135,802.5 			"/>
		</g>
		<g id="XMLID_47_">
			<polygon id="XMLID_55_" style="fill:#54A8E2;" points="1040.8,474.2 1239.1,784 855.2,990.9 1049.5,827.9 			"/>
			<polygon id="XMLID_54_" style="fill:#4B99C4;" points="1033.9,458.1 1089,845.1 855.2,990.9 890.4,769.6 			"/>
			<polygon id="XMLID_53_" style="fill:#FF33CF;" points="1040.8,474.2 855.2,990.9 750.6,879 785,637.4 			"/>
			<polygon id="XMLID_52_" style="fill:#2B8E40;" points="1002.4,367.3 1178.1,578.3 743.9,424.6 850.8,297.9 			"/>
			<polygon id="XMLID_51_" style="fill:#39D160;" points="1040.8,474.2 819.2,776 687.8,540.9 743.9,424.6 			"/>
			<polygon id="XMLID_50_" style="fill:#FFB54A;" points="844.3,328 638.1,645.2 528.1,386.4 517.6,361.6 			"/>
			<polygon id="XMLID_49_" style="fill:#DD9A4A;" points="865.5,719.1 754.1,918.4 646.8,665.8 636.3,641 			"/>
			<polygon id="XMLID_48_" style="fill:#A5238C;" points="701.2,548.1 777.8,430.3 911.7,833.8 629.2,657.2 			"/>
		</g>
		<g id="XMLID_38_">
			<polygon id="XMLID_46_" style="fill:#54A8E2;" points="855.2,849.1 1116.8,590.5 1399.3,922.8 1199.3,766.8 			"/>
			<polygon id="XMLID_45_" style="fill:#4B99C4;" points="840.9,859.2 1207.9,724.6 1399.3,922.8 1175.5,934.6 			"/>
			<polygon id="XMLID_44_" style="fill:#FF33CF;" points="855.2,849.1 1399.3,922.8 1311.6,1048.5 1068.2,1065.2 			"/>
			<polygon id="XMLID_43_" style="fill:#2B8E40;" points="758.7,908.9 928.4,693.1 868.6,1149.9 722.5,1071.6 			"/>
			<polygon id="XMLID_42_" style="fill:#39D160;" points="855.2,849.1 1196.6,1002.9 994.1,1180.4 868.6,1149.9 			"/>
			<polygon id="XMLID_41_" style="fill:#FFB54A;" points="753.2,1071.8 1106.5,1207.3 876.3,1368.8 854.2,1384.3 			"/>
			<polygon id="XMLID_40_" style="fill:#DD9A4A;" points="1131.3,969.4 1349.4,1036.9 1124.8,1194.5 1102.7,1209.9 			"/>
			<polygon id="XMLID_39_" style="fill:#A5238C;" points="998.3,1165.8 867.1,1115.5 1233.8,900.4 1120,1213.4 			"/>
		</g>
		<g id="XMLID_101_">
			<polygon id="XMLID_109_" style="fill:#54A8E2;" points="-84.9,218.7 -340.3,-46.1 -4.5,-324.5 -163,-126.4 			"/>
			<polygon id="XMLID_108_" style="fill:#4B99C4;" points="-75,233.1 -205.1,-135.6 -4.5,-324.5 4.5,-100.6 			"/>
			<polygon id="XMLID_107_" style="fill:#FF33CF;" points="-84.9,218.7 -4.5,-324.5 120.1,-235.3 133.8,8.4 			"/>
			<polygon id="XMLID_106_" style="fill:#2B8E40;" points="-26.3,315.9 -240,143.6 216,208.9 136,354.1 			"/>
			<polygon id="XMLID_105_" style="fill:#39D160;" points="-84.9,218.7 73.1,-120.8 248.1,83.9 216,208.9 			"/>
			<polygon id="XMLID_104_" style="fill:#FFB54A;" points="136.5,323.4 276.3,-28.2 435,204 450.2,226.2 			"/>
			<polygon id="XMLID_103_" style="fill:#DD9A4A;" points="38.8,-55.9 108.9,-273.2 263.7,-46.6 278.9,-24.4 			"/>
			<polygon id="XMLID_102_" style="fill:#A5238C;" points="233.5,79.5 181.6,210.1 -29,-159.3 282.6,-41.7 			"/>
		</g>
		<g id="XMLID_92_">
			<polygon id="XMLID_100_" style="fill:#54A8E2;" points="776,405.7 252.3,235.8 499.8,-368.3 429.9,4.9 			"/>
			<polygon id="XMLID_99_" style="fill:#4B99C4;" points="799.2,417.9 367.9,22.5 499.8,-368.3 669.3,-78.9 			"/>
			<polygon id="XMLID_98_" style="fill:#FF33CF;" points="776,405.7 499.8,-368.3 727.2,-338.2 916.8,-26 			"/>
			<polygon id="XMLID_97_" style="fill:#2B8E40;" points="921.9,492.9 518.3,415.8 1166.6,181.1 1163.1,429.2 			"/>
			<polygon id="XMLID_96_" style="fill:#39D160;" points="776,405.7 745.7,-153.8 1120.9,-6.7 1166.6,181.1 			"/>
			<polygon id="XMLID_95_" style="fill:#FFB54A;" points="1142.2,388.2 1079.4,-174.7 1452.4,20.3 1488.1,39 			"/>
			<polygon id="XMLID_94_" style="fill:#DD9A4A;" points="746.1,-44 685.7,-380.4 1049.7,-190.2 1085.5,-171.5 			"/>
			<polygon id="XMLID_93_" style="fill:#A5238C;" points="1098.6,-2.3 1121.9,206.8 583.8,-132.9 1078.2,-196.9 			"/>
		</g>
		<g id="XMLID_164_">
			<polygon id="XMLID_172_" style="fill:#54A8E2;" points="1720.8,1043.9 1088.8,838.9 1387.4,110 1303.1,560.3 			"/>
			<polygon id="XMLID_171_" style="fill:#4B99C4;" points="1748.8,1058.6 1228.3,581.5 1387.4,110 1592,459.2 			"/>
			<polygon id="XMLID_170_" style="fill:#FF33CF;" points="1720.8,1043.9 1387.4,110 1661.8,146.3 1890.7,523 			"/>
			<polygon id="XMLID_169_" style="fill:#2B8E40;" points="1896.7,1149.1 1409.8,1056.1 2192.1,772.8 2187.9,1072.2 			"/>
			<polygon id="XMLID_168_" style="fill:#39D160;" points="1720.8,1043.9 1684.2,368.8 2137,546.3 2192.1,772.8 			"/>
			<polygon id="XMLID_167_" style="fill:#FFB54A;" points="2162.6,1022.7 2086.8,343.6 2536.9,578.9 2580,601.4 			"/>
			<polygon id="XMLID_166_" style="fill:#DD9A4A;" points="1684.7,501.3 1611.8,95.3 2051,324.9 2094.2,347.5 			"/>
			<polygon id="XMLID_165_" style="fill:#A5238C;" points="2110,551.6 2138.1,803.9 1488.8,394 2085.4,316.8 			"/>
		</g>
		<g id="XMLID_146_">
			<polygon id="XMLID_154_" style="fill:#54A8E2;" points="1618.1,303.7 1263.2,188.6 1430.9,-220.7 1383.5,32.1 			"/>
			<polygon id="XMLID_153_" style="fill:#4B99C4;" points="1633.8,311.9 1341.5,44 1430.9,-220.7 1545.8,-24.6 			"/>
			<polygon id="XMLID_152_" style="fill:#FF33CF;" points="1618.1,303.7 1430.9,-220.7 1585,-200.3 1713.5,11.2 			"/>
			<polygon id="XMLID_151_" style="fill:#2B8E40;" points="1716.9,362.8 1443.4,310.5 1882.7,151.5 1880.4,319.6 			"/>
			<polygon id="XMLID_150_" style="fill:#39D160;" points="1618.1,303.7 1597.5,-75.4 1851.8,24.3 1882.7,151.5 			"/>
			<polygon id="XMLID_149_" style="fill:#FFB54A;" points="1866.1,291.8 1823.6,-89.5 2076.4,42.6 2100.6,55.2 			"/>
			<polygon id="XMLID_148_" style="fill:#DD9A4A;" points="1597.8,-1 1556.9,-229 1803.5,-100 1827.7,-87.4 			"/>
			<polygon id="XMLID_147_" style="fill:#A5238C;" points="1836.6,27.3 1852.4,168.9 1487.8,-61.2 1822.8,-104.6 			"/>
		</g>
		<g id="XMLID_155_">
			<polygon id="XMLID_163_" style="fill:#54A8E2;" points="1363.4,1131.7 1050.4,1030.1 1198.3,669 1156.5,892.1 			"/>
			<polygon id="XMLID_162_" style="fill:#4B99C4;" points="1377.3,1139 1119.5,902.6 1198.3,669 1299.7,842 			"/>
			<polygon id="XMLID_161_" style="fill:#FF33CF;" points="1363.4,1131.7 1198.3,669 1334.3,687 1447.6,873.7 			"/>
			<polygon id="XMLID_160_" style="fill:#2B8E40;" points="1450.6,1183.8 1209.4,1137.7 1596.9,997.4 1594.9,1145.7 			"/>
			<polygon id="XMLID_159_" style="fill:#39D160;" points="1363.4,1131.7 1345.3,797.2 1569.6,885.2 1596.9,997.4 			"/>
			<polygon id="XMLID_158_" style="fill:#FFB54A;" points="1582.3,1121.2 1544.8,784.8 1767.8,901.3 1789.1,912.5 			"/>
			<polygon id="XMLID_157_" style="fill:#DD9A4A;" points="1345.6,862.9 1309.5,661.8 1527.1,775.5 1548.4,786.7 			"/>
			<polygon id="XMLID_156_" style="fill:#A5238C;" points="1556.3,887.8 1570.2,1012.8 1248.5,809.8 1544.1,771.5 			"/>
		</g>
		<g id="XMLID_83_">
			<polygon id="XMLID_91_" style="fill:#54A8E2;" points="574.5,273.4 430.6,611.9 43.1,411.7 287.4,480.2 			"/>
			<polygon id="XMLID_90_" style="fill:#4B99C4;" points="583.9,258.7 295.4,522.5 43.1,411.7 245.7,315.9 			"/>
			<polygon id="XMLID_89_" style="fill:#FF33CF;" points="574.5,273.4 43.1,411.7 76.6,262.1 295.5,154.3 			"/>
			<polygon id="XMLID_88_" style="fill:#2B8E40;" points="641.1,181.5 566,445.5 447.9,0.2 612.9,17.1 			"/>
			<polygon id="XMLID_87_" style="fill:#39D160;" points="574.5,273.4 200.3,260.7 320.3,19.6 447.9,0.2 			"/>
			<polygon id="XMLID_86_" style="fill:#FFB54A;" points="584.3,28.7 206.1,37.4 357.8,-199.4 372.3,-222.1 			"/>
			<polygon id="XMLID_85_" style="fill:#DD9A4A;" points="273.4,266.8 46,287.2 194,56.2 208.6,33.5 			"/>
			<polygon id="XMLID_84_" style="fill:#A5238C;" points="321.9,34.7 462.4,31.5 204.8,369.7 191.2,36.8 			"/>
		</g>
		<g id="XMLID_74_">
			<polygon id="XMLID_82_" style="fill:#54A8E2;" points="160.2,331.7 521.3,401.8 406.4,822.5 422.4,569.3 			"/>
			<polygon id="XMLID_81_" style="fill:#4B99C4;" points="143.8,325.5 462,552.7 406.4,822.5 270.4,644.4 			"/>
			<polygon id="XMLID_80_" style="fill:#FF33CF;" points="160.2,331.7 406.4,822.5 253.1,821 102,629.4 			"/>
			<polygon id="XMLID_79_" style="fill:#2B8E40;" points="56.4,285.8 330.3,304.1 -80.5,512.4 -98.4,347.6 			"/>
			<polygon id="XMLID_78_" style="fill:#39D160;" points="160.2,331.7 225.9,700.3 -35,633.2 -80.5,512.4 			"/>
			<polygon id="XMLID_77_" style="fill:#FFB54A;" points="-81.1,373.1 6.2,741.2 -257,642.3 -282.2,632.8 			"/>
			<polygon id="XMLID_76_" style="fill:#DD9A4A;" points="216.6,627.5 284,845.7 27.2,749.1 2,739.6 			"/>
			<polygon id="XMLID_75_" style="fill:#A5238C;" points="-20.5,628.5 -53,491.8 331.5,673.2 8.8,755.9 			"/>
		</g>
		<g id="XMLID_137_">
			<polygon id="XMLID_145_" style="fill:#54A8E2;" points="322.9,833.7 67.5,568.9 403.2,290.6 244.8,488.6 			"/>
			<polygon id="XMLID_144_" style="fill:#4B99C4;" points="332.7,848.2 202.7,479.5 403.2,290.6 412.3,514.5 			"/>
			<polygon id="XMLID_143_" style="fill:#FF33CF;" points="322.9,833.7 403.2,290.6 527.9,379.8 541.6,623.4 			"/>
			<polygon id="XMLID_142_" style="fill:#2B8E40;" points="381.5,930.9 167.8,758.6 623.8,824 543.7,969.2 			"/>
			<polygon id="XMLID_141_" style="fill:#39D160;" points="322.9,833.7 480.8,494.3 655.8,698.9 623.8,824 			"/>
			<polygon id="XMLID_140_" style="fill:#FFB54A;" points="544.3,938.4 684.1,586.9 842.8,819 858,841.3 			"/>
			<polygon id="XMLID_139_" style="fill:#DD9A4A;" points="446.6,559.2 516.7,341.8 671.5,568.4 686.7,590.7 			"/>
			<polygon id="XMLID_138_" style="fill:#A5238C;" points="641.3,694.5 589.3,825.1 378.8,455.8 690.4,573.4 			"/>
		</g>
		<g id="XMLID_128_">
			<polygon id="XMLID_136_" style="fill:#54A8E2;" points="431.1,429.6 225.4,734.6 -116.8,464.3 109.9,578 			"/>
			<polygon id="XMLID_135_" style="fill:#4B99C4;" points="443.2,416.9 109.8,621 -116.8,464.3 100.3,408.8 			"/>
			<polygon id="XMLID_134_" style="fill:#FF33CF;" points="431.1,429.6 -116.8,464.3 -55.6,323.8 179.9,259.6 			"/>
			<polygon id="XMLID_133_" style="fill:#2B8E40;" points="514,352 390.1,597 358.9,137.4 517.6,185.3 			"/>
			<polygon id="XMLID_132_" style="fill:#39D160;" points="431.1,429.6 66.2,345.9 229.9,132.1 358.9,137.4 			"/>
			<polygon id="XMLID_131_" style="fill:#FFB54A;" points="487.4,191.3 114.4,127.8 308.3,-75.8 326.9,-95.3 			"/>
			<polygon id="XMLID_130_" style="fill:#DD9A4A;" points="136.8,365.9 -90.4,342.7 98.9,144 117.5,124.5 			"/>
			<polygon id="XMLID_129_" style="fill:#A5238C;" points="228.6,147.2 367.1,170.8 49.8,453.8 99.9,124.4 			"/>
		</g>
		<g id="XMLID_119_">
			<polygon id="XMLID_127_" style="fill:#54A8E2;" points="982.3,888.5 838.4,1227 450.9,1026.8 695.2,1095.2 			"/>
			<polygon id="XMLID_126_" style="fill:#4B99C4;" points="991.7,873.7 703.2,1137.5 450.9,1026.8 653.5,931 			"/>
			<polygon id="XMLID_125_" style="fill:#FF33CF;" points="982.3,888.5 450.9,1026.8 484.3,877.2 703.3,769.3 			"/>
			<polygon id="XMLID_124_" style="fill:#2B8E40;" points="1048.9,796.5 973.8,1060.6 855.7,615.3 1020.7,632.2 			"/>
			<polygon id="XMLID_123_" style="fill:#39D160;" points="982.3,888.5 608.1,875.7 728.1,634.6 855.7,615.3 			"/>
			<polygon id="XMLID_122_" style="fill:#FFB54A;" points="992.1,643.7 613.9,652.4 765.6,415.6 780.1,393 			"/>
			<polygon id="XMLID_121_" style="fill:#DD9A4A;" points="681.2,881.9 453.8,902.3 601.8,671.2 616.3,648.6 			"/>
			<polygon id="XMLID_120_" style="fill:#A5238C;" points="729.7,649.8 870.2,646.5 612.5,984.7 599,651.9 			"/>
		</g>
		<g id="XMLID_110_">
			<polygon id="XMLID_118_" style="fill:#54A8E2;" points="568,946.8 929.1,1016.9 814.1,1437.6 830.1,1184.4 			"/>
			<polygon id="XMLID_117_" style="fill:#4B99C4;" points="551.6,940.6 869.8,1167.7 814.1,1437.6 678.2,1259.4 			"/>
			<polygon id="XMLID_116_" style="fill:#FF33CF;" points="568,946.8 814.1,1437.6 660.9,1436.1 509.7,1244.5 			"/>
			<polygon id="XMLID_115_" style="fill:#2B8E40;" points="464.2,900.8 738.1,919.1 327.3,1127.5 309.4,962.7 			"/>
			<polygon id="XMLID_114_" style="fill:#39D160;" points="568,946.8 633.6,1315.3 372.8,1248.3 327.3,1127.5 			"/>
			<polygon id="XMLID_113_" style="fill:#FFB54A;" points="326.6,988.2 414,1356.3 150.8,1257.3 125.6,1247.8 			"/>
			<polygon id="XMLID_112_" style="fill:#DD9A4A;" points="624.4,1242.6 691.8,1460.7 435,1364.2 409.7,1354.7 			"/>
			<polygon id="XMLID_111_" style="fill:#A5238C;" points="387.3,1243.5 354.8,1106.8 739.3,1288.3 416.6,1370.9 			"/>
		</g>
		<g id="XMLID_335_">
			<polygon id="XMLID_343_" style="fill:#54A8E2;" points="-597.6,736.6 -960.3,798.1 -1000.7,363.8 -926.6,606.4 			"/>
			<polygon id="XMLID_342_" style="fill:#4B99C4;" points="-580.1,736.6 -957.9,636 -1000.7,363.8 -810.8,482.7 			"/>
			<polygon id="XMLID_341_" style="fill:#FF33CF;" points="-597.6,736.6 -1000.7,363.8 -856.8,311.3 -647.9,437.4 			"/>
			<polygon id="XMLID_340_" style="fill:#2B8E40;" points="-484.3,743.1 -747.1,822.3 -435.9,482.7 -361.1,630.7 			"/>
			<polygon id="XMLID_339_" style="fill:#39D160;" points="-597.6,736.6 -788.8,414.7 -521,385.6 -435.9,482.7 			"/>
			<polygon id="XMLID_338_" style="fill:#FFB54A;" points="-386.3,612.9 -597.6,299.1 -316.4,299.1 -289.5,299.1 			"/>
			<polygon id="XMLID_337_" style="fill:#DD9A4A;" points="-754.5,479.6 -894.4,299.1 -620,299.1 -593,299.1 			"/>
			<polygon id="XMLID_336_" style="fill:#A5238C;" points="-532.9,395.2 -454.4,511.7 -878.1,477.2 -605.2,286.3 			"/>
		</g>
		<g id="XMLID_326_">
			<polygon id="XMLID_334_" style="fill:#54A8E2;" points="-870.2,419.2 -734.4,761.1 -1150.7,891.3 -928.9,768.1 			"/>
			<polygon id="XMLID_333_" style="fill:#4B99C4;" points="-873.8,402.1 -893.4,792.6 -1150.7,891.3 -1074,680.7 			"/>
			<polygon id="XMLID_332_" style="fill:#FF33CF;" points="-870.2,419.2 -1150.7,891.3 -1232.1,761.4 -1152.3,530.8 			"/>
			<polygon id="XMLID_331_" style="fill:#2B8E40;" points="-887.5,307 -755.2,547.6 -1152.3,314 -1023.1,210.1 			"/>
			<polygon id="XMLID_330_" style="fill:#39D160;" points="-870.2,419.2 -1145.1,673.3 -1229.4,417.6 -1152.3,314 			"/>
			<polygon id="XMLID_329_" style="fill:#FFB54A;" points="-1035.3,238.3 -1298.1,510.5 -1356.8,235.5 -1362.4,209.2 			"/>
			<polygon id="XMLID_328_" style="fill:#DD9A4A;" points="-1088.8,626.3 -1236.2,800.8 -1293.4,532.4 -1299.1,506 			"/>
			<polygon id="XMLID_327_" style="fill:#A5238C;" points="-1217.6,427.2 -1120,326.1 -1065.4,747.7 -1309,520.6 			"/>
		</g>
		<g id="XMLID_317_">
			<polygon id="XMLID_325_" style="fill:#54A8E2;" points="-180.4,223 17.9,532.8 -366,739.8 -171.7,576.7 			"/>
			<polygon id="XMLID_324_" style="fill:#4B99C4;" points="-187.3,206.9 -132.2,594 -366,739.8 -330.8,518.5 			"/>
			<polygon id="XMLID_323_" style="fill:#FF33CF;" points="-180.4,223 -366,739.8 -470.6,627.8 -436.2,386.2 			"/>
			<polygon id="XMLID_322_" style="fill:#2B8E40;" points="-218.8,116.2 -43.1,327.1 -477.3,173.4 -370.3,46.8 			"/>
			<polygon id="XMLID_321_" style="fill:#39D160;" points="-180.4,223 -402,524.8 -533.4,289.7 -477.3,173.4 			"/>
			<polygon id="XMLID_320_" style="fill:#FFB54A;" points="-376.9,76.8 -583.1,394.1 -693,135.2 -703.6,110.4 			"/>
			<polygon id="XMLID_319_" style="fill:#DD9A4A;" points="-355.7,467.9 -467.1,667.2 -574.4,414.6 -584.9,389.8 			"/>
			<polygon id="XMLID_318_" style="fill:#A5238C;" points="-520,296.9 -443.4,179.1 -309.5,582.6 -592,406 			"/>
		</g>
		<g id="XMLID_308_">
			<polygon id="XMLID_316_" style="fill:#54A8E2;" points="-366,598 -104.4,339.4 178.1,671.6 -21.9,515.6 			"/>
			<polygon id="XMLID_315_" style="fill:#4B99C4;" points="-380.3,608 -13.3,473.4 178.1,671.6 -45.7,683.4 			"/>
			<polygon id="XMLID_314_" style="fill:#FF33CF;" points="-366,598 178.1,671.6 90.4,797.3 -153,814 			"/>
			<polygon id="XMLID_313_" style="fill:#2B8E40;" points="-462.5,657.7 -292.8,441.9 -352.6,898.7 -498.7,820.5 			"/>
			<polygon id="XMLID_312_" style="fill:#39D160;" points="-366,598 -24.6,751.7 -227.1,929.2 -352.6,898.7 			"/>
			<polygon id="XMLID_311_" style="fill:#FFB54A;" points="-468,820.6 -114.7,956.1 -344.9,1117.6 -367,1133.1 			"/>
			<polygon id="XMLID_310_" style="fill:#DD9A4A;" points="-89.9,718.3 128.2,785.7 -96.4,943.3 -118.5,958.8 			"/>
			<polygon id="XMLID_309_" style="fill:#A5238C;" points="-222.9,914.6 -354.1,864.3 12.6,649.2 -101.2,962.3 			"/>
		</g>
		<g id="XMLID_299_">
			<polygon id="XMLID_307_" style="fill:#54A8E2;" points="-1070.9,1068.6 -1433.5,1130.1 -1474,695.9 -1399.8,938.4 			"/>
			<polygon id="XMLID_306_" style="fill:#4B99C4;" points="-1053.3,1068.6 -1431.1,968 -1474,695.9 -1284,814.7 			"/>
			<polygon id="XMLID_305_" style="fill:#FF33CF;" points="-1070.9,1068.6 -1474,695.9 -1330,643.3 -1121.1,769.4 			"/>
			<polygon id="XMLID_304_" style="fill:#2B8E40;" points="-957.5,1075.1 -1220.3,1154.3 -909.1,814.7 -834.4,962.7 			"/>
			<polygon id="XMLID_303_" style="fill:#39D160;" points="-1070.9,1068.6 -1262,746.7 -994.3,717.7 -909.1,814.7 			"/>
			<polygon id="XMLID_302_" style="fill:#FFB54A;" points="-859.5,944.9 -1070.9,631.1 -789.7,631.1 -762.7,631.1 			"/>
			<polygon id="XMLID_301_" style="fill:#DD9A4A;" points="-1227.7,811.6 -1367.6,631.1 -1093.2,631.1 -1066.3,631.1 			"/>
			<polygon id="XMLID_300_" style="fill:#A5238C;" points="-1006.1,727.2 -927.6,843.8 -1351.4,809.2 -1078.4,618.3 			"/>
		</g>
		<g id="XMLID_290_">
			<polygon id="XMLID_298_" style="fill:#54A8E2;" points="-1390.6,782 -1254.8,1123.9 -1671.1,1254 -1449.3,1130.9 			"/>
			<polygon id="XMLID_297_" style="fill:#4B99C4;" points="-1394.3,764.9 -1413.9,1155.3 -1671.1,1254 -1594.5,1043.4 			"/>
			<polygon id="XMLID_296_" style="fill:#FF33CF;" points="-1390.6,782 -1671.1,1254 -1752.5,1124.2 -1672.7,893.6 			"/>
			<polygon id="XMLID_295_" style="fill:#2B8E40;" points="-1407.9,669.8 -1275.6,910.3 -1672.7,676.8 -1543.5,572.8 			"/>
			<polygon id="XMLID_294_" style="fill:#39D160;" points="-1390.6,782 -1665.6,1036.1 -1749.8,780.3 -1672.7,676.8 			"/>
			<polygon id="XMLID_293_" style="fill:#FFB54A;" points="-1555.7,601.1 -1818.5,873.3 -1877.2,598.3 -1882.8,571.9 			"/>
			<polygon id="XMLID_292_" style="fill:#DD9A4A;" points="-1609.2,989.1 -1756.6,1163.5 -1813.8,895.1 -1819.5,868.8 			"/>
			<polygon id="XMLID_291_" style="fill:#A5238C;" points="-1738,789.9 -1640.4,688.8 -1585.8,1110.5 -1829.4,883.4 			"/>
		</g>
		<g id="XMLID_281_">
			<polygon id="XMLID_289_" style="fill:#54A8E2;" points="-653.6,555.1 -455.3,864.9 -839.2,1071.8 -644.9,908.8 			"/>
			<polygon id="XMLID_288_" style="fill:#4B99C4;" points="-660.5,538.9 -605.4,926 -839.2,1071.8 -804,850.5 			"/>
			<polygon id="XMLID_287_" style="fill:#FF33CF;" points="-653.6,555.1 -839.2,1071.8 -943.9,959.9 -909.4,718.3 			"/>
			<polygon id="XMLID_286_" style="fill:#2B8E40;" points="-692,448.2 -516.3,659.2 -950.6,505.4 -843.6,378.8 			"/>
			<polygon id="XMLID_285_" style="fill:#39D160;" points="-653.6,555.1 -875.2,856.8 -1006.6,621.8 -950.6,505.4 			"/>
			<polygon id="XMLID_284_" style="fill:#FFB54A;" points="-850.1,408.9 -1056.4,726.1 -1166.3,467.3 -1176.8,442.5 			"/>
			<polygon id="XMLID_283_" style="fill:#DD9A4A;" points="-828.9,799.9 -940.4,999.2 -1047.6,746.7 -1058.2,721.9 			"/>
			<polygon id="XMLID_282_" style="fill:#A5238C;" points="-993.2,628.9 -916.6,511.1 -782.8,914.7 -1065.2,738.1 			"/>
		</g>
		<g id="XMLID_272_">
			<polygon id="XMLID_280_" style="fill:#54A8E2;" points="-839.2,930 -577.6,671.4 -295.1,1003.7 -495.1,847.6 			"/>
			<polygon id="XMLID_279_" style="fill:#4B99C4;" points="-853.5,940.1 -486.5,805.5 -295.1,1003.7 -518.9,1015.4 			"/>
			<polygon id="XMLID_278_" style="fill:#FF33CF;" points="-839.2,930 -295.1,1003.7 -382.8,1129.4 -626.3,1146.1 			"/>
			<polygon id="XMLID_277_" style="fill:#2B8E40;" points="-935.7,989.8 -766.1,774 -825.8,1230.7 -972,1152.5 			"/>
			<polygon id="XMLID_276_" style="fill:#39D160;" points="-839.2,930 -497.9,1083.8 -700.4,1261.3 -825.8,1230.7 			"/>
			<polygon id="XMLID_275_" style="fill:#FFB54A;" points="-941.2,1152.7 -587.9,1288.2 -818.1,1449.7 -840.2,1465.1 			"/>
			<polygon id="XMLID_274_" style="fill:#DD9A4A;" points="-563.2,1050.3 -345,1117.8 -569.6,1275.3 -591.7,1290.8 			"/>
			<polygon id="XMLID_273_" style="fill:#A5238C;" points="-696.1,1246.7 -827.3,1196.3 -460.6,981.3 -574.4,1294.3 			"/>
		</g>
		<g id="XMLID_263_">
			<polygon id="XMLID_271_" style="fill:#54A8E2;" points="-1779.3,299.5 -2034.7,34.7 -1699,-243.6 -1857.4,-45.6 			"/>
			<polygon id="XMLID_270_" style="fill:#4B99C4;" points="-1769.5,314 -1899.5,-54.7 -1699,-243.6 -1689.9,-19.7 			"/>
			<polygon id="XMLID_269_" style="fill:#FF33CF;" points="-1779.3,299.5 -1699,-243.6 -1574.3,-154.4 -1560.6,89.3 			"/>
			<polygon id="XMLID_268_" style="fill:#2B8E40;" points="-1720.7,396.8 -1934.4,224.5 -1478.4,289.8 -1558.5,435 			"/>
			<polygon id="XMLID_267_" style="fill:#39D160;" points="-1779.3,299.5 -1621.4,-39.9 -1446.4,164.8 -1478.4,289.8 			"/>
			<polygon id="XMLID_266_" style="fill:#FFB54A;" points="-1557.9,404.2 -1418.1,52.7 -1259.4,284.9 -1244.2,307.1 			"/>
			<polygon id="XMLID_265_" style="fill:#DD9A4A;" points="-1655.6,25 -1585.5,-192.3 -1430.7,34.2 -1415.5,56.5 			"/>
			<polygon id="XMLID_264_" style="fill:#A5238C;" points="-1460.9,160.4 -1512.9,290.9 -1723.4,-78.4 -1411.8,39.2 			"/>
		</g>
		<g id="XMLID_254_">
			<polygon id="XMLID_262_" style="fill:#54A8E2;" points="-918.4,486.6 -1442.1,316.7 -1194.7,-287.4 -1264.6,85.8 			"/>
			<polygon id="XMLID_261_" style="fill:#4B99C4;" points="-895.2,498.8 -1326.5,103.3 -1194.7,-287.4 -1025.1,2 			"/>
			<polygon id="XMLID_260_" style="fill:#FF33CF;" points="-918.4,486.6 -1194.7,-287.4 -967.2,-257.3 -777.6,54.9 			"/>
			<polygon id="XMLID_259_" style="fill:#2B8E40;" points="-772.6,573.8 -1176.2,496.7 -527.8,261.9 -531.3,510.1 			"/>
			<polygon id="XMLID_258_" style="fill:#39D160;" points="-918.4,486.6 -948.8,-72.9 -573.5,74.2 -527.8,261.9 			"/>
			<polygon id="XMLID_257_" style="fill:#FFB54A;" points="-552.3,469.1 -615,-93.8 -242,101.2 -206.3,119.9 			"/>
			<polygon id="XMLID_256_" style="fill:#DD9A4A;" points="-948.3,36.9 -1008.7,-299.6 -644.7,-109.3 -609,-90.6 			"/>
			<polygon id="XMLID_255_" style="fill:#A5238C;" points="-595.8,78.6 -572.5,287.6 -1110.7,-52 -616.2,-116 			"/>
		</g>
		<g id="XMLID_245_">
			<polygon id="XMLID_253_" style="fill:#54A8E2;" points="26.3,1124.8 -605.6,919.7 -307,190.9 -391.3,641.2 			"/>
			<polygon id="XMLID_252_" style="fill:#4B99C4;" points="54.4,1139.5 -466.1,662.3 -307,190.9 -102.4,540.1 			"/>
			<polygon id="XMLID_251_" style="fill:#FF33CF;" points="26.3,1124.8 -307,190.9 -32.6,227.2 196.3,603.9 			"/>
			<polygon id="XMLID_250_" style="fill:#2B8E40;" points="202.3,1230 -284.6,1136.9 497.6,853.7 493.5,1153.1 			"/>
			<polygon id="XMLID_249_" style="fill:#39D160;" points="26.3,1124.8 -10.3,449.6 442.5,627.2 497.6,853.7 			"/>
			<polygon id="XMLID_248_" style="fill:#FFB54A;" points="468.1,1103.6 392.4,424.5 842.5,659.8 885.6,682.3 			"/>
			<polygon id="XMLID_247_" style="fill:#DD9A4A;" points="-9.7,582.1 -82.6,176.2 356.6,405.8 399.7,428.3 			"/>
			<polygon id="XMLID_246_" style="fill:#A5238C;" points="415.6,632.5 443.7,884.7 -205.6,474.9 391,397.7 			"/>
		</g>
		<g id="XMLID_236_">
			<polygon id="XMLID_244_" style="fill:#54A8E2;" points="-76.4,384.6 -431.2,269.4 -263.5,-139.8 -310.9,113 			"/>
			<polygon id="XMLID_243_" style="fill:#4B99C4;" points="-60.6,392.8 -352.9,124.9 -263.5,-139.8 -148.6,56.2 			"/>
			<polygon id="XMLID_242_" style="fill:#FF33CF;" points="-76.4,384.6 -263.5,-139.8 -109.4,-119.4 19.1,92.1 			"/>
			<polygon id="XMLID_241_" style="fill:#2B8E40;" points="22.5,443.6 -251,391.4 188.3,232.4 185.9,400.5 			"/>
			<polygon id="XMLID_240_" style="fill:#39D160;" points="-76.4,384.6 -96.9,5.5 157.3,105.1 188.3,232.4 			"/>
			<polygon id="XMLID_239_" style="fill:#FFB54A;" points="171.7,372.7 129.2,-8.7 381.9,123.5 406.1,136.1 			"/>
			<polygon id="XMLID_238_" style="fill:#DD9A4A;" points="-96.6,79.9 -137.5,-148.1 109.1,-19.2 133.3,-6.5 			"/>
			<polygon id="XMLID_237_" style="fill:#A5238C;" points="142.2,108.1 158,249.8 -206.6,19.7 128.4,-23.7 			"/>
		</g>
		<g id="XMLID_227_">
			<polygon id="XMLID_235_" style="fill:#54A8E2;" points="-331,1212.6 -644.1,1111 -496.1,749.9 -537.9,973 			"/>
			<polygon id="XMLID_234_" style="fill:#4B99C4;" points="-317.1,1219.9 -574.9,983.5 -496.1,749.9 -394.8,922.9 			"/>
			<polygon id="XMLID_233_" style="fill:#FF33CF;" points="-331,1212.6 -496.1,749.9 -360.2,767.9 -246.8,954.5 			"/>
			<polygon id="XMLID_232_" style="fill:#2B8E40;" points="-243.8,1264.7 -485.1,1218.6 -97.5,1078.3 -99.6,1226.6 			"/>
			<polygon id="XMLID_231_" style="fill:#39D160;" points="-331,1212.6 -349.1,878.1 -124.8,966.1 -97.5,1078.3 			"/>
			<polygon id="XMLID_230_" style="fill:#FFB54A;" points="-112.1,1202.1 -149.6,865.6 73.4,982.2 94.7,993.4 			"/>
			<polygon id="XMLID_229_" style="fill:#DD9A4A;" points="-348.9,943.7 -384.9,742.6 -167.4,856.4 -146,867.5 			"/>
			<polygon id="XMLID_228_" style="fill:#A5238C;" points="-138.1,968.7 -124.2,1093.7 -445.9,890.6 -150.3,852.4 			"/>
		</g>
		<g id="XMLID_218_">
			<polygon id="XMLID_226_" style="fill:#54A8E2;" points="-1119.9,354.3 -1263.8,692.8 -1651.3,492.6 -1407,561 			"/>
			<polygon id="XMLID_225_" style="fill:#4B99C4;" points="-1110.5,339.5 -1399,603.3 -1651.3,492.6 -1448.7,396.8 			"/>
			<polygon id="XMLID_224_" style="fill:#FF33CF;" points="-1119.9,354.3 -1651.3,492.6 -1617.9,343 -1399,235.2 			"/>
			<polygon id="XMLID_223_" style="fill:#2B8E40;" points="-1053.3,262.3 -1128.4,526.4 -1246.5,81.1 -1081.6,98 			"/>
			<polygon id="XMLID_222_" style="fill:#39D160;" points="-1119.9,354.3 -1494.1,341.6 -1374.1,100.5 -1246.5,81.1 			"/>
			<polygon id="XMLID_221_" style="fill:#FFB54A;" points="-1110.1,109.6 -1488.3,118.2 -1336.6,-118.5 -1322.1,-141.2 			"/>
			<polygon id="XMLID_220_" style="fill:#DD9A4A;" points="-1421,347.7 -1648.4,368.1 -1500.4,137.1 -1485.9,114.4 			"/>
			<polygon id="XMLID_219_" style="fill:#A5238C;" points="-1372.5,115.6 -1232,112.4 -1489.7,450.5 -1503.2,117.7 			"/>
		</g>
		<g id="XMLID_209_">
			<polygon id="XMLID_217_" style="fill:#54A8E2;" points="-1534.2,412.6 -1173.1,482.7 -1288.1,903.4 -1272.1,650.2 			"/>
			<polygon id="XMLID_216_" style="fill:#4B99C4;" points="-1550.6,406.4 -1232.4,633.6 -1288.1,903.4 -1424,725.3 			"/>
			<polygon id="XMLID_215_" style="fill:#FF33CF;" points="-1534.2,412.6 -1288.1,903.4 -1441.3,901.9 -1592.5,710.3 			"/>
			<polygon id="XMLID_214_" style="fill:#2B8E40;" points="-1638,366.6 -1364.1,385 -1774.9,593.3 -1792.8,428.5 			"/>
			<polygon id="XMLID_213_" style="fill:#39D160;" points="-1534.2,412.6 -1468.6,781.2 -1729.4,714.1 -1774.9,593.3 			"/>
			<polygon id="XMLID_212_" style="fill:#FFB54A;" points="-1775.6,454 -1688.2,822.1 -1951.4,723.1 -1976.6,713.7 			"/>
			<polygon id="XMLID_211_" style="fill:#DD9A4A;" points="-1477.8,708.4 -1410.4,926.6 -1667.3,830 -1692.5,820.5 			"/>
			<polygon id="XMLID_210_" style="fill:#A5238C;" points="-1714.9,709.4 -1747.4,572.6 -1362.9,754.1 -1685.6,836.8 			"/>
		</g>
		<g id="XMLID_200_">
			<polygon id="XMLID_208_" style="fill:#54A8E2;" points="-1371.6,914.6 -1626.9,649.8 -1291.2,371.4 -1449.7,569.5 			"/>
			<polygon id="XMLID_207_" style="fill:#4B99C4;" points="-1361.7,929 -1491.7,560.4 -1291.2,371.4 -1282.2,595.3 			"/>
			<polygon id="XMLID_206_" style="fill:#FF33CF;" points="-1371.6,914.6 -1291.2,371.4 -1166.6,460.6 -1152.9,704.3 			"/>
			<polygon id="XMLID_205_" style="fill:#2B8E40;" points="-1313,1011.8 -1526.7,839.5 -1070.7,904.9 -1150.7,1050.1 			"/>
			<polygon id="XMLID_204_" style="fill:#39D160;" points="-1371.6,914.6 -1213.6,575.1 -1038.6,779.8 -1070.7,904.9 			"/>
			<polygon id="XMLID_203_" style="fill:#FFB54A;" points="-1150.2,1019.3 -1010.3,667.7 -851.7,899.9 -836.5,922.2 			"/>
			<polygon id="XMLID_202_" style="fill:#DD9A4A;" points="-1247.8,640 -1177.7,422.7 -1022.9,649.3 -1007.7,671.5 			"/>
			<polygon id="XMLID_201_" style="fill:#A5238C;" points="-1053.1,775.4 -1105.1,906 -1315.6,536.6 -1004,654.3 			"/>
		</g>
		<g id="XMLID_191_">
			<polygon id="XMLID_199_" style="fill:#54A8E2;" points="-1263.3,510.5 -1469,815.5 -1811.3,545.2 -1584.5,658.9 			"/>
			<polygon id="XMLID_198_" style="fill:#4B99C4;" points="-1251.2,497.8 -1584.7,701.9 -1811.3,545.2 -1594.2,489.7 			"/>
			<polygon id="XMLID_197_" style="fill:#FF33CF;" points="-1263.3,510.5 -1811.3,545.2 -1750,404.7 -1514.6,340.5 			"/>
			<polygon id="XMLID_196_" style="fill:#2B8E40;" points="-1180.4,432.9 -1304.4,677.8 -1335.6,218.2 -1176.9,266.2 			"/>
			<polygon id="XMLID_195_" style="fill:#39D160;" points="-1263.3,510.5 -1628.2,426.8 -1464.5,213 -1335.6,218.2 			"/>
			<polygon id="XMLID_194_" style="fill:#FFB54A;" points="-1207.1,272.1 -1580.1,208.7 -1386.1,5.1 -1367.5,-14.4 			"/>
			<polygon id="XMLID_193_" style="fill:#DD9A4A;" points="-1557.6,446.8 -1784.8,423.5 -1595.5,224.9 -1576.9,205.3 			"/>
			<polygon id="XMLID_192_" style="fill:#A5238C;" points="-1465.8,228.1 -1327.3,251.7 -1644.6,534.6 -1594.6,205.3 			"/>
		</g>
		<g id="XMLID_182_">
			<polygon id="XMLID_190_" style="fill:#54A8E2;" points="-712.1,969.3 -856.1,1307.9 -1243.5,1107.6 -999.2,1176.1 			"/>
			<polygon id="XMLID_189_" style="fill:#4B99C4;" points="-702.7,954.6 -991.2,1218.4 -1243.5,1107.6 -1040.9,1011.8 			"/>
			<polygon id="XMLID_188_" style="fill:#FF33CF;" points="-712.1,969.3 -1243.5,1107.6 -1210.1,958.1 -991.2,850.2 			"/>
			<polygon id="XMLID_187_" style="fill:#2B8E40;" points="-645.6,877.4 -720.6,1141.4 -838.7,696.2 -673.8,713.1 			"/>
			<polygon id="XMLID_186_" style="fill:#39D160;" points="-712.1,969.3 -1086.3,956.6 -966.3,715.5 -838.7,696.2 			"/>
			<polygon id="XMLID_185_" style="fill:#FFB54A;" points="-702.3,724.6 -1080.6,733.3 -928.9,496.5 -914.3,473.8 			"/>
			<polygon id="XMLID_184_" style="fill:#DD9A4A;" points="-1013.2,962.8 -1240.7,983.2 -1092.6,752.1 -1078.1,729.4 			"/>
			<polygon id="XMLID_183_" style="fill:#A5238C;" points="-964.7,730.6 -824.2,727.4 -1081.9,1065.6 -1095.4,732.8 			"/>
		</g>
		<g id="XMLID_173_">
			<polygon id="XMLID_181_" style="fill:#54A8E2;" points="-1126.4,1027.6 -765.3,1097.7 -880.3,1518.4 -864.3,1265.3 			"/>
			<polygon id="XMLID_180_" style="fill:#4B99C4;" points="-1142.8,1021.5 -824.6,1248.6 -880.3,1518.4 -1016.3,1340.3 			"/>
			<polygon id="XMLID_179_" style="fill:#FF33CF;" points="-1126.4,1027.6 -880.3,1518.4 -1033.5,1517 -1184.7,1325.4 			"/>
			<polygon id="XMLID_178_" style="fill:#2B8E40;" points="-1230.2,981.7 -956.3,1000 -1367.2,1208.4 -1385,1043.5 			"/>
			<polygon id="XMLID_177_" style="fill:#39D160;" points="-1126.4,1027.6 -1060.8,1396.2 -1321.6,1329.2 -1367.2,1208.4 			"/>
			<polygon id="XMLID_176_" style="fill:#FFB54A;" points="-1367.8,1069 -1280.4,1437.2 -1543.6,1338.2 -1568.8,1328.7 			"/>
			<polygon id="XMLID_175_" style="fill:#DD9A4A;" points="-1070,1323.4 -1002.6,1541.6 -1259.5,1445 -1284.7,1435.6 			"/>
			<polygon id="XMLID_174_" style="fill:#A5238C;" points="-1307.2,1324.4 -1339.6,1187.7 -955.1,1369.2 -1277.8,1451.8 			"/>
		</g>
	</g>
</g>
<g id="Layer_3" style="display:none;">
	<g id="XMLID_344_" style="display:inline;opacity:0.53;">
		<g id="XMLID_678_">
			<polygon id="XMLID_686_" points="1096.8,655.7 734.1,717.2 693.7,282.9 767.8,525.5 			"/>
			<polygon id="XMLID_685_" points="1114.3,655.7 736.5,555.1 693.7,282.9 883.6,401.8 			"/>
			<polygon id="XMLID_684_" points="1096.8,655.7 693.7,282.9 837.7,230.4 1046.6,356.5 			"/>
			<polygon id="XMLID_683_" points="1210.1,662.2 947.3,741.4 1258.5,401.8 1333.3,549.8 			"/>
			<polygon id="XMLID_682_" points="1096.8,655.7 905.7,333.8 1173.4,304.8 1258.5,401.8 			"/>
			<polygon id="XMLID_681_" points="1308.2,532 1096.8,218.2 1378,218.2 1404.9,218.2 			"/>
			<polygon id="XMLID_680_" points="939.9,398.7 800,218.2 1074.4,218.2 1101.4,218.2 			"/>
			<polygon id="XMLID_679_" points="1161.5,314.3 1240,430.9 816.3,396.3 1089.2,205.4 			"/>
		</g>
		<g id="XMLID_669_">
			<polygon id="XMLID_677_" points="824.2,338.4 960,680.2 543.8,810.4 765.5,687.3 			"/>
			<polygon id="XMLID_676_" points="820.6,321.2 801,711.7 543.8,810.4 620.4,599.8 			"/>
			<polygon id="XMLID_675_" points="824.2,338.4 543.8,810.4 462.3,680.5 542.1,449.9 			"/>
			<polygon id="XMLID_674_" points="806.9,226.2 939.3,466.7 542.2,233.2 671.3,129.2 			"/>
			<polygon id="XMLID_673_" points="824.2,338.4 549.3,592.5 465,336.7 542.2,233.2 			"/>
			<polygon id="XMLID_672_" points="659.1,157.5 396.3,429.6 337.7,154.6 332,128.3 			"/>
			<polygon id="XMLID_671_" points="605.6,545.4 458.2,719.9 401,451.5 395.4,425.2 			"/>
			<polygon id="XMLID_670_" points="476.8,346.3 574.4,245.2 629.1,666.8 385.4,439.7 			"/>
		</g>
		<g id="XMLID_660_">
			<polygon id="XMLID_668_" points="1514,142.2 1712.3,452 1328.5,658.9 1522.8,495.9 			"/>
			<polygon id="XMLID_667_" points="1507.2,126 1562.2,513.1 1328.5,658.9 1363.6,437.6 			"/>
			<polygon id="XMLID_666_" points="1514,142.2 1328.5,658.9 1223.8,546.9 1258.3,305.3 			"/>
			<polygon id="XMLID_665_" points="1475.7,35.3 1651.3,246.2 1217.1,92.5 1324.1,-34.1 			"/>
			<polygon id="XMLID_664_" points="1514,142.2 1292.4,443.9 1161.1,208.8 1217.1,92.5 			"/>
			<polygon id="XMLID_663_" points="1317.5,-4 1111.3,313.2 1001.4,54.4 990.8,29.6 			"/>
			<polygon id="XMLID_662_" points="1338.8,387 1227.3,586.3 1120,333.8 1109.5,309 			"/>
			<polygon id="XMLID_661_" points="1174.5,216 1251,98.2 1384.9,501.7 1102.5,325.1 			"/>
		</g>
		<g id="XMLID_651_">
			<polygon id="XMLID_659_" points="1328.4,517.1 1590.1,258.5 1872.5,590.8 1672.5,434.7 			"/>
			<polygon id="XMLID_658_" points="1314.1,527.1 1681.2,392.6 1872.5,590.8 1648.8,602.5 			"/>
			<polygon id="XMLID_657_" points="1328.4,517.1 1872.5,590.8 1784.9,716.5 1541.4,733.2 			"/>
			<polygon id="XMLID_656_" points="1231.9,576.9 1401.6,361.1 1341.9,817.8 1195.7,739.6 			"/>
			<polygon id="XMLID_655_" points="1328.4,517.1 1669.8,670.9 1467.3,848.4 1341.9,817.8 			"/>
			<polygon id="XMLID_654_" points="1226.5,739.7 1579.7,875.3 1349.5,1036.8 1327.5,1052.2 			"/>
			<polygon id="XMLID_653_" points="1604.5,637.4 1822.7,704.8 1598,862.4 1576,877.9 			"/>
			<polygon id="XMLID_652_" points="1471.5,833.8 1340.3,783.4 1707.1,568.4 1593.3,881.4 			"/>
		</g>
		<g id="XMLID_642_">
			<polygon id="XMLID_650_" points="623.6,987.8 260.9,1049.2 220.5,615 294.6,857.6 			"/>
			<polygon id="XMLID_649_" points="641.1,987.8 263.3,887.1 220.5,615 410.4,733.8 			"/>
			<polygon id="XMLID_648_" points="623.6,987.8 220.5,615 364.4,562.4 573.3,688.6 			"/>
			<polygon id="XMLID_647_" points="736.9,994.2 474.1,1073.5 785.3,733.8 860,881.8 			"/>
			<polygon id="XMLID_646_" points="623.6,987.8 432.4,665.8 700.1,636.8 785.3,733.8 			"/>
			<polygon id="XMLID_645_" points="834.9,864 623.6,550.2 904.8,550.2 931.7,550.2 			"/>
			<polygon id="XMLID_644_" points="466.7,730.7 326.8,550.2 601.2,550.2 628.2,550.2 			"/>
			<polygon id="XMLID_643_" points="688.3,646.3 766.8,762.9 343.1,728.4 616,537.4 			"/>
		</g>
		<g id="XMLID_633_">
			<polygon id="XMLID_641_" points="303.8,701.1 439.6,1043 23.3,1173.1 245.1,1050 			"/>
			<polygon id="XMLID_640_" points="300.2,684 280.6,1074.5 23.3,1173.1 100,962.6 			"/>
			<polygon id="XMLID_639_" points="303.8,701.1 23.3,1173.1 -58.1,1043.3 21.7,812.7 			"/>
			<polygon id="XMLID_638_" points="286.5,588.9 418.8,829.4 21.8,595.9 150.9,492 			"/>
			<polygon id="XMLID_637_" points="303.8,701.1 28.9,955.2 -55.4,699.5 21.8,595.9 			"/>
			<polygon id="XMLID_636_" points="138.7,520.2 -124.1,792.4 -182.7,517.4 -188.4,491.1 			"/>
			<polygon id="XMLID_635_" points="85.2,908.2 -62.2,1082.6 -119.4,814.3 -125,787.9 			"/>
			<polygon id="XMLID_634_" points="-43.6,709.1 54,608 108.6,1029.6 -135,802.5 			"/>
		</g>
		<g id="XMLID_624_">
			<polygon id="XMLID_632_" points="1040.8,474.2 1239.1,784 855.2,990.9 1049.5,827.9 			"/>
			<polygon id="XMLID_631_" points="1033.9,458.1 1089,845.1 855.2,990.9 890.4,769.6 			"/>
			<polygon id="XMLID_630_" points="1040.8,474.2 855.2,990.9 750.6,879 785,637.4 			"/>
			<polygon id="XMLID_629_" points="1002.4,367.3 1178.1,578.3 743.9,424.6 850.8,297.9 			"/>
			<polygon id="XMLID_628_" points="1040.8,474.2 819.2,776 687.8,540.9 743.9,424.6 			"/>
			<polygon id="XMLID_627_" points="844.3,328 638.1,645.2 528.1,386.4 517.6,361.6 			"/>
			<polygon id="XMLID_626_" points="865.5,719.1 754.1,918.4 646.8,665.8 636.3,641 			"/>
			<polygon id="XMLID_625_" points="701.2,548.1 777.8,430.3 911.7,833.8 629.2,657.2 			"/>
		</g>
		<g id="XMLID_615_">
			<polygon id="XMLID_623_" points="855.2,849.1 1116.8,590.5 1399.3,922.8 1199.3,766.8 			"/>
			<polygon id="XMLID_622_" points="840.9,859.2 1207.9,724.6 1399.3,922.8 1175.5,934.6 			"/>
			<polygon id="XMLID_621_" points="855.2,849.1 1399.3,922.8 1311.6,1048.5 1068.2,1065.2 			"/>
			<polygon id="XMLID_620_" points="758.7,908.9 928.4,693.1 868.6,1149.9 722.5,1071.6 			"/>
			<polygon id="XMLID_619_" points="855.2,849.1 1196.6,1002.9 994.1,1180.4 868.6,1149.9 			"/>
			<polygon id="XMLID_618_" points="753.2,1071.8 1106.5,1207.3 876.3,1368.8 854.2,1384.3 			"/>
			<polygon id="XMLID_617_" points="1131.3,969.4 1349.4,1036.9 1124.8,1194.5 1102.7,1209.9 			"/>
			<polygon id="XMLID_616_" points="998.3,1165.8 867.1,1115.5 1233.8,900.4 1120,1213.4 			"/>
		</g>
		<g id="XMLID_606_">
			<polygon id="XMLID_614_" points="-84.9,218.7 -340.3,-46.1 -4.5,-324.5 -163,-126.4 			"/>
			<polygon id="XMLID_613_" points="-75,233.1 -205.1,-135.6 -4.5,-324.5 4.5,-100.6 			"/>
			<polygon id="XMLID_612_" points="-84.9,218.7 -4.5,-324.5 120.1,-235.3 133.8,8.4 			"/>
			<polygon id="XMLID_611_" points="-26.3,315.9 -240,143.6 216,208.9 136,354.1 			"/>
			<polygon id="XMLID_610_" points="-84.9,218.7 73.1,-120.8 248.1,83.9 216,208.9 			"/>
			<polygon id="XMLID_609_" points="136.5,323.4 276.3,-28.2 435,204 450.2,226.2 			"/>
			<polygon id="XMLID_608_" points="38.8,-55.9 108.9,-273.2 263.7,-46.6 278.9,-24.4 			"/>
			<polygon id="XMLID_607_" points="233.5,79.5 181.6,210.1 -29,-159.3 282.6,-41.7 			"/>
		</g>
		<g id="XMLID_597_">
			<polygon id="XMLID_605_" points="776,405.7 252.3,235.8 499.8,-368.3 429.9,4.9 			"/>
			<polygon id="XMLID_604_" points="799.2,417.9 367.9,22.5 499.8,-368.3 669.3,-78.9 			"/>
			<polygon id="XMLID_603_" points="776,405.7 499.8,-368.3 727.2,-338.2 916.8,-26 			"/>
			<polygon id="XMLID_602_" points="921.9,492.9 518.3,415.8 1166.6,181.1 1163.1,429.2 			"/>
			<polygon id="XMLID_601_" points="776,405.7 745.7,-153.8 1120.9,-6.7 1166.6,181.1 			"/>
			<polygon id="XMLID_600_" points="1142.2,388.2 1079.4,-174.7 1452.4,20.3 1488.1,39 			"/>
			<polygon id="XMLID_599_" points="746.1,-44 685.7,-380.4 1049.7,-190.2 1085.5,-171.5 			"/>
			<polygon id="XMLID_598_" points="1098.6,-2.3 1121.9,206.8 583.8,-132.9 1078.2,-196.9 			"/>
		</g>
		<g id="XMLID_588_">
			<polygon id="XMLID_596_" points="1720.8,1043.9 1088.8,838.9 1387.4,110 1303.1,560.3 			"/>
			<polygon id="XMLID_595_" points="1748.8,1058.6 1228.3,581.5 1387.4,110 1592,459.2 			"/>
			<polygon id="XMLID_594_" points="1720.8,1043.9 1387.4,110 1661.8,146.3 1890.7,523 			"/>
			<polygon id="XMLID_593_" points="1896.7,1149.1 1409.8,1056.1 2192.1,772.8 2187.9,1072.2 			"/>
			<polygon id="XMLID_592_" points="1720.8,1043.9 1684.2,368.8 2137,546.3 2192.1,772.8 			"/>
			<polygon id="XMLID_591_" points="2162.6,1022.7 2086.8,343.6 2536.9,578.9 2580,601.4 			"/>
			<polygon id="XMLID_590_" points="1684.7,501.3 1611.8,95.3 2051,324.9 2094.2,347.5 			"/>
			<polygon id="XMLID_589_" points="2110,551.6 2138.1,803.9 1488.8,394 2085.4,316.8 			"/>
		</g>
		<g id="XMLID_579_">
			<polygon id="XMLID_587_" points="1618.1,303.7 1263.2,188.6 1430.9,-220.7 1383.5,32.1 			"/>
			<polygon id="XMLID_586_" points="1633.8,311.9 1341.5,44 1430.9,-220.7 1545.8,-24.6 			"/>
			<polygon id="XMLID_585_" points="1618.1,303.7 1430.9,-220.7 1585,-200.3 1713.5,11.2 			"/>
			<polygon id="XMLID_584_" points="1716.9,362.8 1443.4,310.5 1882.7,151.5 1880.4,319.6 			"/>
			<polygon id="XMLID_583_" points="1618.1,303.7 1597.5,-75.4 1851.8,24.3 1882.7,151.5 			"/>
			<polygon id="XMLID_582_" points="1866.1,291.8 1823.6,-89.5 2076.4,42.6 2100.6,55.2 			"/>
			<polygon id="XMLID_581_" points="1597.8,-1 1556.9,-229 1803.5,-100 1827.7,-87.4 			"/>
			<polygon id="XMLID_580_" points="1836.6,27.3 1852.4,168.9 1487.8,-61.2 1822.8,-104.6 			"/>
		</g>
		<g id="XMLID_570_">
			<polygon id="XMLID_578_" points="1363.4,1131.7 1050.4,1030.1 1198.3,669 1156.5,892.1 			"/>
			<polygon id="XMLID_577_" points="1377.3,1139 1119.5,902.6 1198.3,669 1299.7,842 			"/>
			<polygon id="XMLID_576_" points="1363.4,1131.7 1198.3,669 1334.3,687 1447.6,873.7 			"/>
			<polygon id="XMLID_575_" points="1450.6,1183.8 1209.4,1137.7 1596.9,997.4 1594.9,1145.7 			"/>
			<polygon id="XMLID_574_" points="1363.4,1131.7 1345.3,797.2 1569.6,885.2 1596.9,997.4 			"/>
			<polygon id="XMLID_573_" points="1582.3,1121.2 1544.8,784.8 1767.8,901.3 1789.1,912.5 			"/>
			<polygon id="XMLID_572_" points="1345.6,862.9 1309.5,661.8 1527.1,775.5 1548.4,786.7 			"/>
			<polygon id="XMLID_571_" points="1556.3,887.8 1570.2,1012.8 1248.5,809.8 1544.1,771.5 			"/>
		</g>
		<g id="XMLID_561_">
			<polygon id="XMLID_569_" points="574.5,273.4 430.6,611.9 43.1,411.7 287.4,480.2 			"/>
			<polygon id="XMLID_568_" points="583.9,258.7 295.4,522.5 43.1,411.7 245.7,315.9 			"/>
			<polygon id="XMLID_567_" points="574.5,273.4 43.1,411.7 76.6,262.1 295.5,154.3 			"/>
			<polygon id="XMLID_566_" points="641.1,181.5 566,445.5 447.9,0.2 612.9,17.1 			"/>
			<polygon id="XMLID_565_" points="574.5,273.4 200.3,260.7 320.3,19.6 447.9,0.2 			"/>
			<polygon id="XMLID_564_" points="584.3,28.7 206.1,37.4 357.8,-199.4 372.3,-222.1 			"/>
			<polygon id="XMLID_563_" points="273.4,266.8 46,287.2 194,56.2 208.6,33.5 			"/>
			<polygon id="XMLID_562_" points="321.9,34.7 462.4,31.5 204.8,369.7 191.2,36.8 			"/>
		</g>
		<g id="XMLID_552_">
			<polygon id="XMLID_560_" points="160.2,331.7 521.3,401.8 406.4,822.5 422.4,569.3 			"/>
			<polygon id="XMLID_559_" points="143.8,325.5 462,552.7 406.4,822.5 270.4,644.4 			"/>
			<polygon id="XMLID_558_" points="160.2,331.7 406.4,822.5 253.1,821 102,629.4 			"/>
			<polygon id="XMLID_557_" points="56.4,285.8 330.3,304.1 -80.5,512.4 -98.4,347.6 			"/>
			<polygon id="XMLID_556_" points="160.2,331.7 225.9,700.3 -35,633.2 -80.5,512.4 			"/>
			<polygon id="XMLID_555_" points="-81.1,373.1 6.2,741.2 -257,642.3 -282.2,632.8 			"/>
			<polygon id="XMLID_554_" points="216.6,627.5 284,845.7 27.2,749.1 2,739.6 			"/>
			<polygon id="XMLID_553_" points="-20.5,628.5 -53,491.8 331.5,673.2 8.8,755.9 			"/>
		</g>
		<g id="XMLID_543_">
			<polygon id="XMLID_551_" points="322.9,833.7 67.5,568.9 403.2,290.6 244.8,488.6 			"/>
			<polygon id="XMLID_550_" points="332.7,848.2 202.7,479.5 403.2,290.6 412.3,514.5 			"/>
			<polygon id="XMLID_549_" points="322.9,833.7 403.2,290.6 527.9,379.8 541.6,623.4 			"/>
			<polygon id="XMLID_548_" points="381.5,930.9 167.8,758.6 623.8,824 543.7,969.2 			"/>
			<polygon id="XMLID_547_" points="322.9,833.7 480.8,494.3 655.8,698.9 623.8,824 			"/>
			<polygon id="XMLID_546_" points="544.3,938.4 684.1,586.9 842.8,819 858,841.3 			"/>
			<polygon id="XMLID_545_" points="446.6,559.2 516.7,341.8 671.5,568.4 686.7,590.7 			"/>
			<polygon id="XMLID_544_" points="641.3,694.5 589.3,825.1 378.8,455.8 690.4,573.4 			"/>
		</g>
		<g id="XMLID_534_">
			<polygon id="XMLID_542_" points="431.1,429.6 225.4,734.6 -116.8,464.3 109.9,578 			"/>
			<polygon id="XMLID_541_" points="443.2,416.9 109.8,621 -116.8,464.3 100.3,408.8 			"/>
			<polygon id="XMLID_540_" points="431.1,429.6 -116.8,464.3 -55.6,323.8 179.9,259.6 			"/>
			<polygon id="XMLID_539_" points="514,352 390.1,597 358.9,137.4 517.6,185.3 			"/>
			<polygon id="XMLID_538_" points="431.1,429.6 66.2,345.9 229.9,132.1 358.9,137.4 			"/>
			<polygon id="XMLID_537_" points="487.4,191.3 114.4,127.8 308.3,-75.8 326.9,-95.3 			"/>
			<polygon id="XMLID_536_" points="136.8,365.9 -90.4,342.7 98.9,144 117.5,124.5 			"/>
			<polygon id="XMLID_535_" points="228.6,147.2 367.1,170.8 49.8,453.8 99.9,124.4 			"/>
		</g>
		<g id="XMLID_525_">
			<polygon id="XMLID_533_" points="982.3,888.5 838.4,1227 450.9,1026.8 695.2,1095.2 			"/>
			<polygon id="XMLID_532_" points="991.7,873.7 703.2,1137.5 450.9,1026.8 653.5,931 			"/>
			<polygon id="XMLID_531_" points="982.3,888.5 450.9,1026.8 484.3,877.2 703.3,769.3 			"/>
			<polygon id="XMLID_530_" points="1048.9,796.5 973.8,1060.6 855.7,615.3 1020.7,632.2 			"/>
			<polygon id="XMLID_529_" points="982.3,888.5 608.1,875.7 728.1,634.6 855.7,615.3 			"/>
			<polygon id="XMLID_528_" points="992.1,643.7 613.9,652.4 765.6,415.6 780.1,393 			"/>
			<polygon id="XMLID_527_" points="681.2,881.9 453.8,902.3 601.8,671.2 616.3,648.6 			"/>
			<polygon id="XMLID_526_" points="729.7,649.8 870.2,646.5 612.5,984.7 599,651.9 			"/>
		</g>
		<g id="XMLID_516_">
			<polygon id="XMLID_524_" points="568,946.8 929.1,1016.9 814.1,1437.6 830.1,1184.4 			"/>
			<polygon id="XMLID_523_" points="551.6,940.6 869.8,1167.7 814.1,1437.6 678.2,1259.4 			"/>
			<polygon id="XMLID_522_" points="568,946.8 814.1,1437.6 660.9,1436.1 509.7,1244.5 			"/>
			<polygon id="XMLID_521_" points="464.2,900.8 738.1,919.1 327.3,1127.5 309.4,962.7 			"/>
			<polygon id="XMLID_520_" points="568,946.8 633.6,1315.3 372.8,1248.3 327.3,1127.5 			"/>
			<polygon id="XMLID_519_" points="326.6,988.2 414,1356.3 150.8,1257.3 125.6,1247.8 			"/>
			<polygon id="XMLID_518_" points="624.4,1242.6 691.8,1460.7 435,1364.2 409.7,1354.7 			"/>
			<polygon id="XMLID_517_" points="387.3,1243.5 354.8,1106.8 739.3,1288.3 416.6,1370.9 			"/>
		</g>
		<g id="XMLID_507_">
			<polygon id="XMLID_515_" points="-597.6,736.6 -960.3,798.1 -1000.7,363.8 -926.6,606.4 			"/>
			<polygon id="XMLID_514_" points="-580.1,736.6 -957.9,636 -1000.7,363.8 -810.8,482.7 			"/>
			<polygon id="XMLID_513_" points="-597.6,736.6 -1000.7,363.8 -856.8,311.3 -647.9,437.4 			"/>
			<polygon id="XMLID_512_" points="-484.3,743.1 -747.1,822.3 -435.9,482.7 -361.1,630.7 			"/>
			<polygon id="XMLID_511_" points="-597.6,736.6 -788.8,414.7 -521,385.6 -435.9,482.7 			"/>
			<polygon id="XMLID_510_" points="-386.3,612.9 -597.6,299.1 -316.4,299.1 -289.5,299.1 			"/>
			<polygon id="XMLID_509_" points="-754.5,479.6 -894.4,299.1 -620,299.1 -593,299.1 			"/>
			<polygon id="XMLID_508_" points="-532.9,395.2 -454.4,511.7 -878.1,477.2 -605.2,286.3 			"/>
		</g>
		<g id="XMLID_498_">
			<polygon id="XMLID_506_" points="-870.2,419.2 -734.4,761.1 -1150.7,891.3 -928.9,768.1 			"/>
			<polygon id="XMLID_505_" points="-873.8,402.1 -893.4,792.6 -1150.7,891.3 -1074,680.7 			"/>
			<polygon id="XMLID_504_" points="-870.2,419.2 -1150.7,891.3 -1232.1,761.4 -1152.3,530.8 			"/>
			<polygon id="XMLID_503_" points="-887.5,307 -755.2,547.6 -1152.3,314 -1023.1,210.1 			"/>
			<polygon id="XMLID_502_" points="-870.2,419.2 -1145.1,673.3 -1229.4,417.6 -1152.3,314 			"/>
			<polygon id="XMLID_501_" points="-1035.3,238.3 -1298.1,510.5 -1356.8,235.5 -1362.4,209.2 			"/>
			<polygon id="XMLID_500_" points="-1088.8,626.3 -1236.2,800.8 -1293.4,532.4 -1299.1,506 			"/>
			<polygon id="XMLID_499_" points="-1217.6,427.2 -1120,326.1 -1065.4,747.7 -1309,520.6 			"/>
		</g>
		<g id="XMLID_489_">
			<polygon id="XMLID_497_" points="-180.4,223 17.9,532.8 -366,739.8 -171.7,576.7 			"/>
			<polygon id="XMLID_496_" points="-187.3,206.9 -132.2,594 -366,739.8 -330.8,518.5 			"/>
			<polygon id="XMLID_495_" points="-180.4,223 -366,739.8 -470.6,627.8 -436.2,386.2 			"/>
			<polygon id="XMLID_494_" points="-218.8,116.2 -43.1,327.1 -477.3,173.4 -370.3,46.8 			"/>
			<polygon id="XMLID_493_" points="-180.4,223 -402,524.8 -533.4,289.7 -477.3,173.4 			"/>
			<polygon id="XMLID_492_" points="-376.9,76.8 -583.1,394.1 -693,135.2 -703.6,110.4 			"/>
			<polygon id="XMLID_491_" points="-355.7,467.9 -467.1,667.2 -574.4,414.6 -584.9,389.8 			"/>
			<polygon id="XMLID_490_" points="-520,296.9 -443.4,179.1 -309.5,582.6 -592,406 			"/>
		</g>
		<g id="XMLID_480_">
			<polygon id="XMLID_488_" points="-366,598 -104.4,339.4 178.1,671.6 -21.9,515.6 			"/>
			<polygon id="XMLID_487_" points="-380.3,608 -13.3,473.4 178.1,671.6 -45.7,683.4 			"/>
			<polygon id="XMLID_486_" points="-366,598 178.1,671.6 90.4,797.3 -153,814 			"/>
			<polygon id="XMLID_485_" points="-462.5,657.7 -292.8,441.9 -352.6,898.7 -498.7,820.5 			"/>
			<polygon id="XMLID_484_" points="-366,598 -24.6,751.7 -227.1,929.2 -352.6,898.7 			"/>
			<polygon id="XMLID_483_" points="-468,820.6 -114.7,956.1 -344.9,1117.6 -367,1133.1 			"/>
			<polygon id="XMLID_482_" points="-89.9,718.3 128.2,785.7 -96.4,943.3 -118.5,958.8 			"/>
			<polygon id="XMLID_481_" points="-222.9,914.6 -354.1,864.3 12.6,649.2 -101.2,962.3 			"/>
		</g>
		<g id="XMLID_471_">
			<polygon id="XMLID_479_" points="-1070.9,1068.6 -1433.5,1130.1 -1474,695.9 -1399.8,938.4 			"/>
			<polygon id="XMLID_478_" points="-1053.3,1068.6 -1431.1,968 -1474,695.9 -1284,814.7 			"/>
			<polygon id="XMLID_477_" points="-1070.9,1068.6 -1474,695.9 -1330,643.3 -1121.1,769.4 			"/>
			<polygon id="XMLID_476_" points="-957.5,1075.1 -1220.3,1154.3 -909.1,814.7 -834.4,962.7 			"/>
			<polygon id="XMLID_475_" points="-1070.9,1068.6 -1262,746.7 -994.3,717.7 -909.1,814.7 			"/>
			<polygon id="XMLID_474_" points="-859.5,944.9 -1070.9,631.1 -789.7,631.1 -762.7,631.1 			"/>
			<polygon id="XMLID_473_" points="-1227.7,811.6 -1367.6,631.1 -1093.2,631.1 -1066.3,631.1 			"/>
			<polygon id="XMLID_472_" points="-1006.1,727.2 -927.6,843.8 -1351.4,809.2 -1078.4,618.3 			"/>
		</g>
		<g id="XMLID_462_">
			<polygon id="XMLID_470_" points="-1390.6,782 -1254.8,1123.9 -1671.1,1254 -1449.3,1130.9 			"/>
			<polygon id="XMLID_469_" points="-1394.3,764.9 -1413.9,1155.3 -1671.1,1254 -1594.5,1043.4 			"/>
			<polygon id="XMLID_468_" points="-1390.6,782 -1671.1,1254 -1752.5,1124.2 -1672.7,893.6 			"/>
			<polygon id="XMLID_467_" points="-1407.9,669.8 -1275.6,910.3 -1672.7,676.8 -1543.5,572.8 			"/>
			<polygon id="XMLID_466_" points="-1390.6,782 -1665.6,1036.1 -1749.8,780.3 -1672.7,676.8 			"/>
			<polygon id="XMLID_465_" points="-1555.7,601.1 -1818.5,873.3 -1877.2,598.3 -1882.8,571.9 			"/>
			<polygon id="XMLID_464_" points="-1609.2,989.1 -1756.6,1163.5 -1813.8,895.1 -1819.5,868.8 			"/>
			<polygon id="XMLID_463_" points="-1738,789.9 -1640.4,688.8 -1585.8,1110.5 -1829.4,883.4 			"/>
		</g>
		<g id="XMLID_453_">
			<polygon id="XMLID_461_" points="-653.6,555.1 -455.3,864.9 -839.2,1071.8 -644.9,908.8 			"/>
			<polygon id="XMLID_460_" points="-660.5,538.9 -605.4,926 -839.2,1071.8 -804,850.5 			"/>
			<polygon id="XMLID_459_" points="-653.6,555.1 -839.2,1071.8 -943.9,959.9 -909.4,718.3 			"/>
			<polygon id="XMLID_458_" points="-692,448.2 -516.3,659.2 -950.6,505.4 -843.6,378.8 			"/>
			<polygon id="XMLID_457_" points="-653.6,555.1 -875.2,856.8 -1006.6,621.8 -950.6,505.4 			"/>
			<polygon id="XMLID_456_" points="-850.1,408.9 -1056.4,726.1 -1166.3,467.3 -1176.8,442.5 			"/>
			<polygon id="XMLID_455_" points="-828.9,799.9 -940.4,999.2 -1047.6,746.7 -1058.2,721.9 			"/>
			<polygon id="XMLID_454_" points="-993.2,628.9 -916.6,511.1 -782.8,914.7 -1065.2,738.1 			"/>
		</g>
		<g id="XMLID_444_">
			<polygon id="XMLID_452_" points="-839.2,930 -577.6,671.4 -295.1,1003.7 -495.1,847.6 			"/>
			<polygon id="XMLID_451_" points="-853.5,940.1 -486.5,805.5 -295.1,1003.7 -518.9,1015.4 			"/>
			<polygon id="XMLID_450_" points="-839.2,930 -295.1,1003.7 -382.8,1129.4 -626.3,1146.1 			"/>
			<polygon id="XMLID_449_" points="-935.7,989.8 -766.1,774 -825.8,1230.7 -972,1152.5 			"/>
			<polygon id="XMLID_448_" points="-839.2,930 -497.9,1083.8 -700.4,1261.3 -825.8,1230.7 			"/>
			<polygon id="XMLID_447_" points="-941.2,1152.7 -587.9,1288.2 -818.1,1449.7 -840.2,1465.1 			"/>
			<polygon id="XMLID_446_" points="-563.2,1050.3 -345,1117.8 -569.6,1275.3 -591.7,1290.8 			"/>
			<polygon id="XMLID_445_" points="-696.1,1246.7 -827.3,1196.3 -460.6,981.3 -574.4,1294.3 			"/>
		</g>
		<g id="XMLID_435_">
			<polygon id="XMLID_443_" points="-1779.3,299.5 -2034.7,34.7 -1699,-243.6 -1857.4,-45.6 			"/>
			<polygon id="XMLID_442_" points="-1769.5,314 -1899.5,-54.7 -1699,-243.6 -1689.9,-19.7 			"/>
			<polygon id="XMLID_441_" points="-1779.3,299.5 -1699,-243.6 -1574.3,-154.4 -1560.6,89.3 			"/>
			<polygon id="XMLID_440_" points="-1720.7,396.8 -1934.4,224.5 -1478.4,289.8 -1558.5,435 			"/>
			<polygon id="XMLID_439_" points="-1779.3,299.5 -1621.4,-39.9 -1446.4,164.8 -1478.4,289.8 			"/>
			<polygon id="XMLID_438_" points="-1557.9,404.2 -1418.1,52.7 -1259.4,284.9 -1244.2,307.1 			"/>
			<polygon id="XMLID_437_" points="-1655.6,25 -1585.5,-192.3 -1430.7,34.2 -1415.5,56.5 			"/>
			<polygon id="XMLID_436_" points="-1460.9,160.4 -1512.9,290.9 -1723.4,-78.4 -1411.8,39.2 			"/>
		</g>
		<g id="XMLID_426_">
			<polygon id="XMLID_434_" points="-918.4,486.6 -1442.1,316.7 -1194.7,-287.4 -1264.6,85.8 			"/>
			<polygon id="XMLID_433_" points="-895.2,498.8 -1326.5,103.3 -1194.7,-287.4 -1025.1,2 			"/>
			<polygon id="XMLID_432_" points="-918.4,486.6 -1194.7,-287.4 -967.2,-257.3 -777.6,54.9 			"/>
			<polygon id="XMLID_431_" points="-772.6,573.8 -1176.2,496.7 -527.8,261.9 -531.3,510.1 			"/>
			<polygon id="XMLID_430_" points="-918.4,486.6 -948.8,-72.9 -573.5,74.2 -527.8,261.9 			"/>
			<polygon id="XMLID_429_" points="-552.3,469.1 -615,-93.8 -242,101.2 -206.3,119.9 			"/>
			<polygon id="XMLID_428_" points="-948.3,36.9 -1008.7,-299.6 -644.7,-109.3 -609,-90.6 			"/>
			<polygon id="XMLID_427_" points="-595.8,78.6 -572.5,287.6 -1110.7,-52 -616.2,-116 			"/>
		</g>
		<g id="XMLID_417_">
			<polygon id="XMLID_425_" points="26.3,1124.8 -605.6,919.7 -307,190.9 -391.3,641.2 			"/>
			<polygon id="XMLID_424_" points="54.4,1139.5 -466.1,662.3 -307,190.9 -102.4,540.1 			"/>
			<polygon id="XMLID_423_" points="26.3,1124.8 -307,190.9 -32.6,227.2 196.3,603.9 			"/>
			<polygon id="XMLID_422_" points="202.3,1230 -284.6,1136.9 497.6,853.7 493.5,1153.1 			"/>
			<polygon id="XMLID_421_" points="26.3,1124.8 -10.3,449.6 442.5,627.2 497.6,853.7 			"/>
			<polygon id="XMLID_420_" points="468.1,1103.6 392.4,424.5 842.5,659.8 885.6,682.3 			"/>
			<polygon id="XMLID_419_" points="-9.7,582.1 -82.6,176.2 356.6,405.8 399.7,428.3 			"/>
			<polygon id="XMLID_418_" points="415.6,632.5 443.7,884.7 -205.6,474.9 391,397.7 			"/>
		</g>
		<g id="XMLID_408_">
			<polygon id="XMLID_416_" points="-76.4,384.6 -431.2,269.4 -263.5,-139.8 -310.9,113 			"/>
			<polygon id="XMLID_415_" points="-60.6,392.8 -352.9,124.9 -263.5,-139.8 -148.6,56.2 			"/>
			<polygon id="XMLID_414_" points="-76.4,384.6 -263.5,-139.8 -109.4,-119.4 19.1,92.1 			"/>
			<polygon id="XMLID_413_" points="22.5,443.6 -251,391.4 188.3,232.4 185.9,400.5 			"/>
			<polygon id="XMLID_412_" points="-76.4,384.6 -96.9,5.5 157.3,105.1 188.3,232.4 			"/>
			<polygon id="XMLID_411_" points="171.7,372.7 129.2,-8.7 381.9,123.5 406.1,136.1 			"/>
			<polygon id="XMLID_410_" points="-96.6,79.9 -137.5,-148.1 109.1,-19.2 133.3,-6.5 			"/>
			<polygon id="XMLID_409_" points="142.2,108.1 158,249.8 -206.6,19.7 128.4,-23.7 			"/>
		</g>
		<g id="XMLID_399_">
			<polygon id="XMLID_407_" points="-331,1212.6 -644.1,1111 -496.1,749.9 -537.9,973 			"/>
			<polygon id="XMLID_406_" points="-317.1,1219.9 -574.9,983.5 -496.1,749.9 -394.8,922.9 			"/>
			<polygon id="XMLID_405_" points="-331,1212.6 -496.1,749.9 -360.2,767.9 -246.8,954.5 			"/>
			<polygon id="XMLID_404_" points="-243.8,1264.7 -485.1,1218.6 -97.5,1078.3 -99.6,1226.6 			"/>
			<polygon id="XMLID_403_" points="-331,1212.6 -349.1,878.1 -124.8,966.1 -97.5,1078.3 			"/>
			<polygon id="XMLID_402_" points="-112.1,1202.1 -149.6,865.6 73.4,982.2 94.7,993.4 			"/>
			<polygon id="XMLID_401_" points="-348.9,943.7 -384.9,742.6 -167.4,856.4 -146,867.5 			"/>
			<polygon id="XMLID_400_" points="-138.1,968.7 -124.2,1093.7 -445.9,890.6 -150.3,852.4 			"/>
		</g>
		<g id="XMLID_390_">
			<polygon id="XMLID_398_" points="-1119.9,354.3 -1263.8,692.8 -1651.3,492.6 -1407,561 			"/>
			<polygon id="XMLID_397_" points="-1110.5,339.5 -1399,603.3 -1651.3,492.6 -1448.7,396.8 			"/>
			<polygon id="XMLID_396_" points="-1119.9,354.3 -1651.3,492.6 -1617.9,343 -1399,235.2 			"/>
			<polygon id="XMLID_395_" points="-1053.3,262.3 -1128.4,526.4 -1246.5,81.1 -1081.6,98 			"/>
			<polygon id="XMLID_394_" points="-1119.9,354.3 -1494.1,341.6 -1374.1,100.5 -1246.5,81.1 			"/>
			<polygon id="XMLID_393_" points="-1110.1,109.6 -1488.3,118.2 -1336.6,-118.5 -1322.1,-141.2 			"/>
			<polygon id="XMLID_392_" points="-1421,347.7 -1648.4,368.1 -1500.4,137.1 -1485.9,114.4 			"/>
			<polygon id="XMLID_391_" points="-1372.5,115.6 -1232,112.4 -1489.7,450.5 -1503.2,117.7 			"/>
		</g>
		<g id="XMLID_381_">
			<polygon id="XMLID_389_" points="-1534.2,412.6 -1173.1,482.7 -1288.1,903.4 -1272.1,650.2 			"/>
			<polygon id="XMLID_388_" points="-1550.6,406.4 -1232.4,633.6 -1288.1,903.4 -1424,725.3 			"/>
			<polygon id="XMLID_387_" points="-1534.2,412.6 -1288.1,903.4 -1441.3,901.9 -1592.5,710.3 			"/>
			<polygon id="XMLID_386_" points="-1638,366.6 -1364.1,385 -1774.9,593.3 -1792.8,428.5 			"/>
			<polygon id="XMLID_385_" points="-1534.2,412.6 -1468.6,781.2 -1729.4,714.1 -1774.9,593.3 			"/>
			<polygon id="XMLID_384_" points="-1775.6,454 -1688.2,822.1 -1951.4,723.1 -1976.6,713.7 			"/>
			<polygon id="XMLID_383_" points="-1477.8,708.4 -1410.4,926.6 -1667.3,830 -1692.5,820.5 			"/>
			<polygon id="XMLID_382_" points="-1714.9,709.4 -1747.4,572.6 -1362.9,754.1 -1685.6,836.8 			"/>
		</g>
		<g id="XMLID_372_">
			<polygon id="XMLID_380_" points="-1371.6,914.6 -1626.9,649.8 -1291.2,371.4 -1449.7,569.5 			"/>
			<polygon id="XMLID_379_" points="-1361.7,929 -1491.7,560.4 -1291.2,371.4 -1282.2,595.3 			"/>
			<polygon id="XMLID_378_" points="-1371.6,914.6 -1291.2,371.4 -1166.6,460.6 -1152.9,704.3 			"/>
			<polygon id="XMLID_377_" points="-1313,1011.8 -1526.7,839.5 -1070.7,904.9 -1150.7,1050.1 			"/>
			<polygon id="XMLID_376_" points="-1371.6,914.6 -1213.6,575.1 -1038.6,779.8 -1070.7,904.9 			"/>
			<polygon id="XMLID_375_" points="-1150.2,1019.3 -1010.3,667.7 -851.7,899.9 -836.5,922.2 			"/>
			<polygon id="XMLID_374_" points="-1247.8,640 -1177.7,422.7 -1022.9,649.3 -1007.7,671.5 			"/>
			<polygon id="XMLID_373_" points="-1053.1,775.4 -1105.1,906 -1315.6,536.6 -1004,654.3 			"/>
		</g>
		<g id="XMLID_363_">
			<polygon id="XMLID_371_" points="-1263.3,510.5 -1469,815.5 -1811.3,545.2 -1584.5,658.9 			"/>
			<polygon id="XMLID_370_" points="-1251.2,497.8 -1584.7,701.9 -1811.3,545.2 -1594.2,489.7 			"/>
			<polygon id="XMLID_369_" points="-1263.3,510.5 -1811.3,545.2 -1750,404.7 -1514.6,340.5 			"/>
			<polygon id="XMLID_368_" points="-1180.4,432.9 -1304.4,677.8 -1335.6,218.2 -1176.9,266.2 			"/>
			<polygon id="XMLID_367_" points="-1263.3,510.5 -1628.2,426.8 -1464.5,213 -1335.6,218.2 			"/>
			<polygon id="XMLID_366_" points="-1207.1,272.1 -1580.1,208.7 -1386.1,5.1 -1367.5,-14.4 			"/>
			<polygon id="XMLID_365_" points="-1557.6,446.8 -1784.8,423.5 -1595.5,224.9 -1576.9,205.3 			"/>
			<polygon id="XMLID_364_" points="-1465.8,228.1 -1327.3,251.7 -1644.6,534.6 -1594.6,205.3 			"/>
		</g>
		<g id="XMLID_354_">
			<polygon id="XMLID_362_" points="-712.1,969.3 -856.1,1307.9 -1243.5,1107.6 -999.2,1176.1 			"/>
			<polygon id="XMLID_361_" points="-702.7,954.6 -991.2,1218.4 -1243.5,1107.6 -1040.9,1011.8 			"/>
			<polygon id="XMLID_360_" points="-712.1,969.3 -1243.5,1107.6 -1210.1,958.1 -991.2,850.2 			"/>
			<polygon id="XMLID_359_" points="-645.6,877.4 -720.6,1141.4 -838.7,696.2 -673.8,713.1 			"/>
			<polygon id="XMLID_358_" points="-712.1,969.3 -1086.3,956.6 -966.3,715.5 -838.7,696.2 			"/>
			<polygon id="XMLID_357_" points="-702.3,724.6 -1080.6,733.3 -928.9,496.5 -914.3,473.8 			"/>
			<polygon id="XMLID_356_" points="-1013.2,962.8 -1240.7,983.2 -1092.6,752.1 -1078.1,729.4 			"/>
			<polygon id="XMLID_355_" points="-964.7,730.6 -824.2,727.4 -1081.9,1065.6 -1095.4,732.8 			"/>
		</g>
		<g id="XMLID_345_">
			<polygon id="XMLID_353_" points="-1126.4,1027.6 -765.3,1097.7 -880.3,1518.4 -864.3,1265.3 			"/>
			<polygon id="XMLID_352_" points="-1142.8,1021.5 -824.6,1248.6 -880.3,1518.4 -1016.3,1340.3 			"/>
			<polygon id="XMLID_351_" points="-1126.4,1027.6 -880.3,1518.4 -1033.5,1517 -1184.7,1325.4 			"/>
			<polygon id="XMLID_350_" points="-1230.2,981.7 -956.3,1000 -1367.2,1208.4 -1385,1043.5 			"/>
			<polygon id="XMLID_349_" points="-1126.4,1027.6 -1060.8,1396.2 -1321.6,1329.2 -1367.2,1208.4 			"/>
			<polygon id="XMLID_348_" points="-1367.8,1069 -1280.4,1437.2 -1543.6,1338.2 -1568.8,1328.7 			"/>
			<polygon id="XMLID_347_" points="-1070,1323.4 -1002.6,1541.6 -1259.5,1445 -1284.7,1435.6 			"/>
			<polygon id="XMLID_346_" points="-1307.2,1324.4 -1339.6,1187.7 -955.1,1369.2 -1277.8,1451.8 			"/>
		</g>
	</g>
</g>
</svg>
