<svg version="1.1" id="Layer_3" xmlns="http://www.w3.org/2000/svg" xmlns:xlink="http://www.w3.org/1999/xlink" x="0px" y="0px"
	 width="336px" height="120px" viewBox="0 0 336 120" enable-background="new 0 0 336 120" xml:space="preserve">
<path id="XMLID_175_" d="M38,33.4c9.8,0,16.3,6.2,16.3,15.6c0,13.3-10.5,25.3-24.2,25.3c-9.8,0-16.3-6.2-16.3-15.6
	C13.8,45.4,24.3,33.4,38,33.4z M25.9,59c0,3.5,2.1,6.3,5.2,6.4c7.5,0.2,11-10,11-16.7c0-3.5-2-6.2-5.2-6.3
	C29.5,42.2,25.9,52.3,25.9,59z"/>
<path id="XMLID_178_" d="M55.5,72.6L69,13.9l12.3-1l-2.8,12.2c-2,8.7-3.5,13.5-3.5,13.5l0.2,0.1c0,0,3.8-5.7,12-5.7
	c8.1,0,11.4,5.4,11.4,12.2c0,13.4-13.4,27.3-34,27.3H55.5z M69.6,63.6c8.1-0.8,16.6-7.6,16.6-16.9c0-2.7-1.4-4.7-3.7-4.7
	c-4.2,0-9.3,6-11.5,15.5L69.6,63.6z"/>
<path id="XMLID_181_" d="M101.3,58.7c0-13.3,10.5-25.3,24.2-25.3c9.7,0,13.9,5,13.9,10.5c0,6.7-7.8,13.8-19.9,13.8
	c-3.7,0-6.8-0.5-6.8-0.5s-0.2,0.8-0.2,1.4c0,4.3,2.3,6.8,6.3,6.8c7.7,0,14.7-4.5,14.7-4.5l0.2,0.1l-2.3,9.7c0,0-4.8,3.5-13.8,3.5
	C107.8,74.3,101.3,68.1,101.3,58.7z M114.1,50.5c0,0,2.3,0.3,5,0.3c5.6,0,9.6-2.6,9.6-5.9c0-1.4-1.2-2.7-4-2.7
	C119.4,42.2,116,45.7,114.1,50.5z"/>
<path id="XMLID_184_" d="M140.2,72.6l13.5-58.6l12.3-1l-2.8,12.2c-2,8.7-3.5,13.5-3.5,13.5l0.2,0.1c0,0,3.8-5.7,12-5.7
	c8.1,0,11.4,5.4,11.4,12.2c0,13.4-13.4,27.3-34,27.3H140.2z M154.3,63.6c8.1-0.8,16.6-7.6,16.6-16.9c0-2.7-1.4-4.7-3.7-4.7
	c-4.2,0-9.3,6-11.5,15.5L154.3,63.6z"/>
<path id="XMLID_187_" d="M197.2,66.6c0,3.7,0.8,5.5,0.8,5.5l-12.1,1c0,0-1-1.7-1-5.5c0-1.6,0.2-3.6,0.7-6l6.1-26.6l11.9-1l-1.4,5.9
	l0.2,0.1c0,0,4.1-6.9,12.5-6.9l-4.3,12.4c0,0-1.1-0.6-2.8-0.6c-3.9,0-7.2,3.8-9.8,14.3C197.4,62.2,197.2,64.7,197.2,66.6z"/>
<path id="XMLID_189_" d="M236.3,66c0,0-3.9,7.9-13.2,7.9c-6.5,0-11.7-3.7-9.2-14.4l5.7-24.6l12.2-1l-5.6,24.2
	c-1.1,4.9-0.1,6.8,2.1,6.8c3.4,0,8.6-4.8,12.3-21.3l1.9-8.7l12.3-1l-9.4,40.5c-3.1,13.5-3.6,18-21.5,18S17,90.3,17,90.3v-4.5
	c0,0,199.9-2.2,207.7-2.2s7.2-1.1,8.8-8.5c1-4.3,3.1-8.9,3.1-8.9L236.3,66z"/>
<path id="XMLID_191_" d="M283.4,71.6c0,0-3.3,2.7-10.7,2.7c-10.5,0-16.2-6.5-16.2-15.5c0-13.6,10.3-25.4,24.5-25.4
	c5.5,0,8.1,1.5,8.1,1.5v10.3l-0.2,0.2c0,0-3.1-2.8-8.1-2.8c-7.9,0-11.9,8.4-11.9,16.1c0,4.3,2.2,6.4,6.1,6.4
	c5.3,0,10.6-3.7,10.6-3.7l0.2,0.1L283.4,71.6z"/>
<path id="XMLID_193_" d="M289,58.7c0-13.3,10.5-25.3,24.2-25.3c9.7,0,13.9,5,13.9,10.5c0,6.7-7.8,13.8-19.9,13.8
	c-3.7,0-6.8-0.5-6.8-0.5s-0.2,0.8-0.2,1.4c0,4.3,2.3,6.8,6.3,6.8c7.7,0,14.7-4.5,14.7-4.5l0.2,0.1l-2.3,9.7c0,0-4.8,3.5-13.8,3.5
	C295.5,74.3,289,68.1,289,58.7z M301.8,50.5c0,0,2.3,0.3,5,0.3c5.6,0,9.6-2.6,9.6-5.9c0-1.4-1.2-2.7-4-2.7
	C307.1,42.2,303.7,45.7,301.8,50.5z"/>
<text id="XMLID_173_" transform="matrix(1 0 0 1 256.4805 91.003)" font-family="'FranklinGothic-Book'" font-size="14.1662px">©</text>
<path id="XMLID_54_" d="M280.3,89.8v1h-6.8v-1c2.7-2,4.3-3.3,4.8-4c0.5-0.6,0.8-1.3,0.8-1.9c0-0.6-0.2-1.1-0.7-1.4
	c-0.4-0.4-0.9-0.5-1.5-0.5c-0.6,0-1.1,0.2-1.6,0.6c-0.5,0.4-0.7,0.9-0.8,1.6l-1.1-0.3c0.5-1.9,1.6-2.8,3.5-2.8c1,0,1.8,0.3,2.4,0.8
	s0.9,1.3,0.9,2.1c0,0.6-0.1,1.1-0.4,1.6s-0.8,1.1-1.7,1.9c-0.8,0.7-1.9,1.5-3.2,2.4H280.3z"/>
<path id="XMLID_56_" d="M289.1,91c-1.1,0-2-0.5-2.7-1.4c-0.7-1-1-2.2-1-3.6c0-1.4,0.3-2.6,0.9-3.5c0.6-1,1.5-1.4,2.7-1.4
	c1.2,0,2.1,0.5,2.7,1.5s0.9,2.2,0.9,3.5c0,1.3-0.3,2.5-1,3.5S290.2,91,289.1,91z M289.1,90c0.8,0,1.4-0.4,1.8-1.1
	c0.4-0.7,0.6-1.7,0.6-2.8c0-1.2-0.2-2.2-0.6-3s-1-1.2-1.8-1.2c-0.8,0-1.4,0.4-1.8,1.1c-0.4,0.7-0.6,1.7-0.6,2.9c0,1.2,0.2,2.2,0.6,3
	C287.7,89.7,288.3,90,289.1,90z"/>
<path id="XMLID_59_" d="M304.9,89.9v0.9h-6.7v-0.9h2.9v-7.4c-0.9,0.9-1.7,1.6-2.6,2.1v-1.2c1.3-0.7,2.2-1.4,2.9-2.4h0.9v8.9H304.9z"
	/>
<path id="XMLID_61_" d="M316,81.2l-0.1,1h-4.7l-0.2,3.1c0.7-0.7,1.5-1,2.4-1c0.9,0,1.7,0.3,2.3,0.9s1,1.4,1,2.4c0,1-0.4,1.8-1.1,2.4
	c-0.7,0.6-1.6,0.9-2.6,0.9c-0.8,0-1.5-0.2-2.2-0.6c-0.6-0.4-1-1-1.2-1.6l1-0.4c0.4,1.1,1.2,1.7,2.4,1.7c0.8,0,1.4-0.2,1.8-0.7
	c0.5-0.5,0.7-1,0.7-1.7c0-0.7-0.2-1.3-0.7-1.7c-0.4-0.4-1-0.6-1.6-0.6c-0.9,0-1.7,0.4-2.3,1.3l-1-0.2l0.3-5.2H316z"/>
</svg>
